<svg width="15" height="15" viewBox="0 0 15 15" fill="none" xmlns="http://www.w3.org/2000/svg">
<g clip-path="url(#clip0_337_3418)">
<path fill-rule="evenodd" clip-rule="evenodd" d="M8.86 4.07861C9.00923 3.92919 9.09305 3.72666 9.09305 3.51548C9.09305 3.30431 9.00923 3.10177 8.86 2.95236L6.20375 0.296108C6.1308 0.217816 6.04282 0.15502 5.94507 0.111466C5.84732 0.0679118 5.7418 0.0444923 5.63481 0.0426045C5.52781 0.0407167 5.42153 0.0603991 5.3223 0.100478C5.22308 0.140556 5.13294 0.20021 5.05727 0.27588C4.9816 0.35155 4.92195 0.441686 4.88187 0.540911C4.84179 0.640136 4.82211 0.746416 4.824 0.853413C4.82588 0.96041 4.8493 1.06593 4.89286 1.16368C4.93641 1.26143 4.99921 1.3494 5.0775 1.42236L6.37375 2.71861H0.859375C0.648031 2.71861 0.445342 2.80256 0.295899 2.95201C0.146456 3.10145 0.0625 3.30414 0.0625 3.51548C0.0625 3.72683 0.146456 3.92952 0.295899 4.07896C0.445342 4.2284 0.648031 4.31236 0.859375 4.31236H6.37375L5.0775 5.60861C4.99921 5.68156 4.93641 5.76954 4.89286 5.86729C4.8493 5.96504 4.82588 6.07056 4.824 6.17755C4.82211 6.28455 4.84179 6.39083 4.88187 6.49006C4.92195 6.58928 4.9816 6.67942 5.05727 6.75509C5.13294 6.83076 5.22308 6.89041 5.3223 6.93049C5.42153 6.97057 5.52781 6.99025 5.63481 6.98836C5.7418 6.98647 5.84732 6.96305 5.94507 6.9195C6.04282 6.87595 6.1308 6.81315 6.20375 6.73486L8.86 4.07861ZM8.79625 8.26486L6.14 10.9211C5.99077 11.0705 5.90695 11.2731 5.90695 11.4842C5.90695 11.6954 5.99077 11.8979 6.14 12.0474L8.79625 14.7036C8.8692 14.7819 8.95718 14.8447 9.05493 14.8883C9.15268 14.9318 9.2582 14.9552 9.3652 14.9571C9.47219 14.959 9.57847 14.9393 9.6777 14.8992C9.77692 14.8592 9.86706 14.7995 9.94273 14.7238C10.0184 14.6482 10.0781 14.558 10.1181 14.4588C10.1582 14.3596 10.1779 14.2533 10.176 14.1463C10.1741 14.0393 10.1507 13.9338 10.1071 13.836C10.0636 13.7383 10.0008 13.6503 9.9225 13.5774L8.62625 12.2811H14.1406C14.352 12.2811 14.5547 12.1972 14.7041 12.0477C14.8535 11.8983 14.9375 11.6956 14.9375 11.4842C14.9375 11.2729 14.8535 11.0702 14.7041 10.9208C14.5547 10.7713 14.352 10.6874 14.1406 10.6874H8.62625L9.9225 9.39111C10.0008 9.31815 10.0636 9.23018 10.1071 9.13243C10.1507 9.03468 10.1741 8.92916 10.176 8.82216C10.1779 8.71517 10.1582 8.60888 10.1181 8.50966C10.0781 8.41044 10.0184 8.3203 9.94273 8.24463C9.86706 8.16896 9.77692 8.10931 9.6777 8.06923C9.57847 8.02915 9.47219 8.00947 9.3652 8.01135C9.2582 8.01324 9.15268 8.03666 9.05493 8.08022C8.95718 8.12377 8.8692 8.18657 8.79625 8.26486ZM13.875 3.51548C13.875 4.00862 13.6791 4.48156 13.3304 4.83026C12.9817 5.17896 12.5088 5.37486 12.0156 5.37486C11.5225 5.37486 11.0495 5.17896 10.7008 4.83026C10.3521 4.48156 10.1562 4.00862 10.1562 3.51548C10.1562 3.02235 10.3521 2.54941 10.7008 2.20071C11.0495 1.85201 11.5225 1.65611 12.0156 1.65611C12.5088 1.65611 12.9817 1.85201 13.3304 2.20071C13.6791 2.54941 13.875 3.02235 13.875 3.51548ZM2.98438 13.3436C3.47751 13.3436 3.95045 13.1477 4.29915 12.799C4.64785 12.4503 4.84375 11.9774 4.84375 11.4842C4.84375 10.9911 4.64785 10.5182 4.29915 10.1695C3.95045 9.82076 3.47751 9.62486 2.98438 9.62486C2.49124 9.62486 2.0183 9.82076 1.6696 10.1695C1.3209 10.5182 1.125 10.9911 1.125 11.4842C1.125 11.9774 1.3209 12.4503 1.6696 12.799C2.0183 13.1477 2.49124 13.3436 2.98438 13.3436Z" fill="#747D8C"/>
</g>
<defs>
<clipPath id="clip0_337_3418">
<rect width="15" height="15" fill="white"/>
</clipPath>
</defs>
</svg>
