<svg width="37" height="26" viewBox="0 0 37 26" fill="none" xmlns="http://www.w3.org/2000/svg">
<path d="M37 19.0781C37 22.5902 35.05 25.4375 31.2188 25.4375H5.78125C1.95002 25.4375 0 22.5902 0 19.0781V6.35938C0 2.84727 1.95002 0 5.78125 0H31.2188C35.05 0 37 2.84727 37 6.35938V19.0781Z" fill="#128807"/>
<path d="M33.0339 13.1753L18.5866 23.3272L4.13867 13.1753L18.5866 3.02344L33.0339 13.1753Z" fill="#F9CB38"/>
<path fill-rule="evenodd" clip-rule="evenodd" d="M24.2872 14.9433C23.6293 17.1789 21.5706 18.8809 19.2396 19.1122C16.1252 19.4238 13.4005 17.4443 12.738 14.3843C12.542 13.485 12.567 12.5517 12.8108 11.6642C12.9016 11.5659 13.0271 11.5422 13.1519 11.5249C14.0628 11.3984 14.9836 11.3583 15.9021 11.4052C16.882 11.4607 17.8538 11.5965 18.7985 11.8636C19.768 12.1383 20.7069 12.4967 21.5931 12.9731C22.2601 13.3274 22.8972 13.7354 23.4981 14.1929C23.7016 14.3507 23.9091 14.5057 24.1045 14.6739C24.1918 14.7491 24.2606 14.83 24.2872 14.9433Z" fill="#002776"/>
<path fill-rule="evenodd" clip-rule="evenodd" d="M13.1377 10.7594C13.8841 9.0915 15.1426 7.98092 16.8822 7.45945C20.3856 6.409 23.9799 8.72439 24.5007 12.3354C24.5817 12.8932 24.5851 13.4529 24.4996 14.0119C24.4111 14.0449 24.3452 13.998 24.2845 13.9477C23.6496 13.4289 22.9722 12.9644 22.2594 12.5591C21.7105 12.2476 21.1402 11.9756 20.5527 11.7451C20.4487 11.704 20.318 11.6827 20.2822 11.5433C20.3197 11.4763 20.3671 11.4179 20.4238 11.3635C20.444 11.3427 20.4735 11.3225 20.4464 11.2878C20.4371 11.2768 20.418 11.2768 20.4018 11.2785C20.3585 11.2832 20.3643 11.3132 20.366 11.345C20.3695 11.4485 20.3093 11.515 20.2301 11.5682C20.0896 11.6 19.9549 11.5578 19.8411 11.4971C19.515 11.326 19.1542 11.2676 18.8091 11.1722C18.2709 11.0259 17.7182 10.9432 17.1666 10.8571C16.7265 10.7868 16.2834 10.7363 15.8387 10.7056C15.434 10.6773 15.0218 10.6813 14.6142 10.7091C14.1696 10.7403 13.7239 10.7715 13.2816 10.8247C13.2539 10.8288 13.2256 10.8248 13.2001 10.8132C13.1746 10.8016 13.1529 10.7829 13.1377 10.7594Z" fill="#002776"/>
<path fill-rule="evenodd" clip-rule="evenodd" d="M20.2869 11.5073C20.2845 11.5778 20.3476 11.5686 20.3857 11.5836C21.8787 12.1644 23.267 12.9845 24.4962 14.0117C24.4607 14.3289 24.3905 14.6412 24.2869 14.9431C23.5637 14.343 22.8231 13.7712 22.0039 13.3041C19.4145 11.8293 16.6418 11.2448 13.6777 11.5582C13.3887 11.5877 13.0996 11.627 12.8105 11.6622C12.8851 11.3495 12.9799 11.0425 13.1355 10.7581C15.2994 10.4661 17.4257 10.632 19.5122 11.2778C19.7712 11.3581 20.018 11.4876 20.2944 11.5119L20.2869 11.5056" fill="#FEFEFE"/>
<path fill-rule="evenodd" clip-rule="evenodd" d="M22.9812 15.2333C22.8071 15.2148 22.9962 15.4281 22.8204 15.4235C22.6672 15.4212 22.6591 15.2986 22.584 15.2304C22.6418 15.1703 22.7441 15.1581 22.7765 15.0645C22.7985 15.1633 22.8915 15.1841 22.9812 15.2333Z" fill="#D9DFEA"/>
<path fill-rule="evenodd" clip-rule="evenodd" d="M16.4158 16.3029C16.2522 16.322 16.3892 16.5001 16.2522 16.503C16.114 16.5058 16.0429 16.4035 16.0152 16.2977C16.0053 16.2677 16.1383 16.2006 16.2036 16.1509C16.2117 16.2555 16.3204 16.2509 16.4158 16.3029Z" fill="#E9ECF3"/>
<path fill-rule="evenodd" clip-rule="evenodd" d="M18.5808 15.9806C18.3536 16.1275 18.5369 15.7956 18.4033 15.828C18.4467 15.7586 18.5692 15.7748 18.5773 15.6685C18.6351 15.7286 18.6843 15.798 18.7762 15.8107C18.645 15.7928 18.7878 16.0841 18.5808 15.9806Z" fill="#EDEFF5"/>
<path fill-rule="evenodd" clip-rule="evenodd" d="M13.8868 12.0856C13.8325 12.1891 13.7914 12.3047 13.6266 12.2353C13.5422 12.2001 13.6324 12.0844 13.5312 12.0735L13.7186 11.9087C13.7313 11.9359 13.7463 11.9619 13.759 11.9891C13.7741 12.0578 13.9111 11.9665 13.8868 12.0856Z" fill="#F0F2F6"/>
<path fill-rule="evenodd" clip-rule="evenodd" d="M14.4111 14.5973C14.3249 14.6245 14.3868 14.8511 14.2018 14.7523C14.1833 14.743 14.1024 14.7875 14.1174 14.7615C14.166 14.6667 14.0573 14.6205 14.074 14.5447C14.1752 14.5887 14.1694 14.4037 14.2729 14.4534C14.2804 14.4592 14.2804 14.4823 14.2856 14.4973C14.2966 14.569 14.4365 14.4794 14.4111 14.5973Z" fill="#ECEFF4"/>
<path fill-rule="evenodd" clip-rule="evenodd" d="M13.5013 15.2665C13.3239 15.3283 13.4562 15.1138 13.3545 15.1156C13.4019 15.0757 13.4551 15.0011 13.5025 15.004C13.5591 15.0069 13.6112 15.0768 13.6632 15.1167C13.5857 15.1427 13.6673 15.3526 13.5013 15.2665Z" fill="#D9DFEA"/>
<path fill-rule="evenodd" clip-rule="evenodd" d="M20.3619 17.3131C20.174 17.3987 20.3567 17.146 20.2312 17.179C20.2185 17.0824 20.3752 17.1408 20.3555 17.0391L20.5249 17.1749C20.4561 17.2061 20.5249 17.4027 20.3619 17.3131Z" fill="#D8DEEA"/>
<path fill-rule="evenodd" clip-rule="evenodd" d="M21.5639 17.1735C21.4084 17.2383 21.5038 17.029 21.4199 17.0082C21.4766 16.9718 21.5361 16.933 21.5916 16.8955C21.5963 16.981 21.7136 16.9498 21.7263 17.0255C21.639 17.0307 21.7298 17.2192 21.5639 17.1735ZM22.645 16.3954C22.4681 16.485 22.5987 16.2497 22.4975 16.2595C22.5178 16.1844 22.634 16.2127 22.6409 16.126L22.8068 16.2503C22.7057 16.2474 22.83 16.4954 22.645 16.3954Z" fill="#DCE1EC"/>
<path fill-rule="evenodd" clip-rule="evenodd" d="M15.4847 15.3161C15.2997 15.4208 15.4205 15.1866 15.335 15.182C15.3436 15.0958 15.4743 15.1328 15.4801 15.0415C15.4974 15.1259 15.6096 15.1016 15.6339 15.1774C15.5234 15.1612 15.6807 15.4265 15.4847 15.3161Z" fill="#D4DAE7"/>
<path fill-rule="evenodd" clip-rule="evenodd" d="M16.2336 13.56C16.129 13.5531 16.2631 13.3883 16.1348 13.3987C16.1567 13.3062 16.2556 13.3253 16.3099 13.2773C16.3377 13.3357 16.4163 13.349 16.4204 13.4329C16.4296 13.5861 16.2937 13.5069 16.2336 13.56Z" fill="#F2F4F7"/>
<path fill-rule="evenodd" clip-rule="evenodd" d="M19.2806 14.781C19.1205 14.8729 19.2049 14.6677 19.1309 14.6452C19.1812 14.6035 19.2297 14.5613 19.2806 14.5186C19.2841 14.6041 19.4477 14.585 19.4014 14.6509C19.3737 14.6903 19.4633 14.8701 19.2806 14.781Z" fill="#E6E9F1"/>
<path fill-rule="evenodd" clip-rule="evenodd" d="M18.5639 14.2661C18.3812 14.2846 18.5697 14.1186 18.4512 14.1227C18.4974 14.0793 18.5419 14.0053 18.594 14.0007C18.6391 13.9961 18.6911 14.0695 18.7402 14.11C18.6761 14.1718 18.6859 14.3314 18.5639 14.2661Z" fill="#EAEDF3"/>
<path fill-rule="evenodd" clip-rule="evenodd" d="M22.999 15.6147C23.0366 15.7142 23.1106 15.7275 23.1684 15.7627C23.1095 15.8292 23.0863 15.931 22.9638 15.931C22.8383 15.9321 22.9233 15.8367 22.895 15.7922C22.825 15.6812 23.0834 15.7749 22.999 15.6147Z" fill="#E4E8F0"/>
<path fill-rule="evenodd" clip-rule="evenodd" d="M21.6903 17.6294C21.6463 17.6947 21.6764 17.7572 21.5596 17.7595C21.4261 17.7618 21.4689 17.6641 21.4631 17.634C21.4521 17.5843 21.5284 17.5369 21.5723 17.5467C21.6105 17.5537 21.6845 17.575 21.6903 17.6294Z" fill="#CED5E4"/>
<path fill-rule="evenodd" clip-rule="evenodd" d="M15.4442 15.7768C15.3488 15.7878 15.428 15.9126 15.3072 15.9086C15.1968 15.9051 15.2129 15.8305 15.2008 15.7854C15.1817 15.7224 15.2748 15.7242 15.2956 15.6768C15.3396 15.7074 15.3841 15.738 15.4442 15.7768Z" fill="#DAE0EB"/>
<path fill-rule="evenodd" clip-rule="evenodd" d="M21.4316 16.4375C21.4727 16.4068 21.5137 16.3785 21.5571 16.3496C21.5606 16.4138 21.6987 16.3768 21.6525 16.4589C21.6334 16.4918 21.6802 16.582 21.5606 16.5739C21.453 16.5664 21.4785 16.4913 21.4316 16.4375Z" fill="#D8DEE9"/>
<path fill-rule="evenodd" clip-rule="evenodd" d="M20.9923 16.6355C20.9715 16.7493 20.9067 16.7678 20.8356 16.7811C20.7148 16.8014 20.8055 16.7106 20.7859 16.6759C20.735 16.5892 20.8634 16.606 20.8784 16.5493C20.9119 16.5933 20.9888 16.5921 20.9923 16.6355Z" fill="#CBD2E3"/>
<path fill-rule="evenodd" clip-rule="evenodd" d="M20.3154 12.8861C20.2749 12.9052 20.3287 13.0017 20.2419 12.974C20.176 12.9514 20.0951 12.9202 20.1009 12.8393C20.1032 12.8081 20.1818 12.7821 20.2258 12.7549C20.2333 12.8133 20.3581 12.7942 20.3154 12.8861Z" fill="#D1D8E6"/>
<path fill-rule="evenodd" clip-rule="evenodd" d="M23.5874 15.4218C23.4787 15.4646 23.5279 15.375 23.5088 15.3489C23.436 15.2501 23.5799 15.2645 23.5874 15.2056C23.6319 15.2351 23.7187 15.2686 23.7152 15.294C23.7127 15.3271 23.6984 15.3581 23.675 15.3816C23.6515 15.405 23.6205 15.4193 23.5874 15.4218Z" fill="#DADFEA"/>
<path fill-rule="evenodd" clip-rule="evenodd" d="M17.9975 14.5396C17.9975 14.6066 18.1328 14.58 18.0871 14.6638C18.0686 14.698 18.1079 14.7893 18.0142 14.7702C17.9431 14.7558 17.8715 14.7141 17.8691 14.6436C17.8691 14.6107 17.9512 14.5754 17.9975 14.5396Z" fill="#CAD2E2"/>
<path fill-rule="evenodd" clip-rule="evenodd" d="M19.847 16.6313C19.7938 16.6064 19.7915 16.5365 19.795 16.5029C19.8008 16.4584 19.8603 16.3983 19.9112 16.4226C19.9424 16.4376 20.0309 16.4289 20.0095 16.5099C19.9898 16.5873 19.9124 16.5983 19.847 16.6313Z" fill="#D0D7E5"/>
<path fill-rule="evenodd" clip-rule="evenodd" d="M22.085 16.5295C22.0873 16.5289 22.1277 16.4729 22.1734 16.4717C22.2064 16.4705 22.2399 16.5388 22.2752 16.5769C22.2278 16.5902 22.2682 16.6775 22.1746 16.6764C22.0902 16.6746 22.0902 16.6365 22.085 16.5295Z" fill="#EFF2F6"/>
<path fill-rule="evenodd" clip-rule="evenodd" d="M18.3644 15.0658C18.3487 15.1282 18.3487 15.1669 18.2932 15.1658C18.2366 15.1646 18.2088 15.1438 18.21 15.086C18.21 15.0403 18.2401 15.0085 18.2742 15.0114C18.3135 15.0143 18.3696 15.0253 18.3644 15.0658Z" fill="#CCD4E3"/>
<path fill-rule="evenodd" clip-rule="evenodd" d="M14.8202 14.166C14.848 14.1961 14.8798 14.2198 14.8919 14.2504C14.9023 14.2759 14.8861 14.3146 14.8503 14.3186C14.8104 14.3221 14.7676 14.321 14.7549 14.2712C14.7433 14.2227 14.7855 14.2053 14.8202 14.166Z" fill="#E0E5EE"/>
<path fill-rule="evenodd" clip-rule="evenodd" d="M14.4116 14.5977C14.396 14.5312 14.2931 14.5734 14.2861 14.4971C14.3081 14.5549 14.4798 14.426 14.4116 14.5977Z" fill="#7085B1"/>
<path fill-rule="evenodd" clip-rule="evenodd" d="M13.8866 12.0853C13.8738 12.0142 13.7646 12.0703 13.7588 11.9888C13.7894 12.0373 13.9444 11.9223 13.8866 12.0853Z" fill="#5C75A7"/>
<path fill-rule="evenodd" clip-rule="evenodd" d="M20.2977 11.5135C20.3087 11.4695 20.3439 11.3979 20.3301 11.3846C20.1416 11.2169 20.3931 11.1886 20.4307 11.1545C20.4995 11.088 20.4885 11.3684 20.67 11.1909C20.5723 11.4077 20.4416 11.4701 20.2913 11.5071L20.2977 11.5135Z" fill="#E7EAF2"/>
<path fill-rule="evenodd" clip-rule="evenodd" d="M14.726 11.3338C14.5422 11.3158 14.7058 11.0765 14.6659 10.9377C14.6162 10.7585 14.7468 10.7608 14.874 10.7603C15.0712 10.7591 15.1827 10.8424 15.1827 11.0505C15.1822 11.2551 15.0873 11.3361 14.726 11.3338Z" fill="#15A24A"/>
<path fill-rule="evenodd" clip-rule="evenodd" d="M21.7494 12.4887C21.7089 12.6124 21.5591 12.6899 21.5337 12.8425C21.5314 12.8627 21.4736 12.8587 21.4626 12.7997C21.4164 12.5234 21.414 12.524 21.21 12.672C21.1938 12.6841 21.1654 12.6951 21.1498 12.6899C21.1198 12.6766 21.1076 12.6465 21.1256 12.6124C21.1932 12.4806 21.2568 12.3453 21.3325 12.2176C21.3834 12.1332 21.4453 12.2037 21.495 12.228C21.6042 12.2817 21.7389 12.3124 21.7494 12.4887Z" fill="#13A248"/>
<path fill-rule="evenodd" clip-rule="evenodd" d="M22.2676 12.9388C22.1613 12.9816 22.1098 12.9012 22.0416 12.8723C21.9953 12.8527 21.952 12.8342 21.9208 12.8856C21.8867 12.94 21.9208 12.9712 21.9676 12.9955C22.0034 13.0134 22.0416 13.0273 22.0682 13.0556C22.115 13.1047 22.2619 13.0914 22.2023 13.1961C22.1555 13.2793 22.0769 13.1822 22.0248 13.1516C21.9352 13.0966 21.7577 13.0666 21.7768 12.9712C21.8063 12.818 21.8936 12.6515 22.0098 12.5463C22.1029 12.4619 22.2058 12.6214 22.3104 12.6613C22.3555 12.6781 22.4324 12.6931 22.4191 12.7642C22.4064 12.8376 22.352 12.7949 22.3104 12.785C22.2127 12.7625 22.1179 12.5971 22.041 12.7116C21.9948 12.7798 22.185 12.8081 22.2451 12.8833C22.2543 12.8943 22.2567 12.9093 22.2676 12.9388ZM23.5135 13.7563C23.5308 13.8916 23.4759 13.9835 23.3343 13.9604C23.1874 13.9361 23.0759 13.8465 23.0504 13.6857C23.0481 13.6696 23.0678 13.6366 23.084 13.632C23.0933 13.6289 23.1031 13.6279 23.1129 13.6291C23.1226 13.6303 23.132 13.6336 23.1403 13.6388C23.1486 13.6439 23.1557 13.6509 23.161 13.6591C23.1664 13.6673 23.1699 13.6766 23.1713 13.6863C23.1898 13.7967 23.2476 13.8459 23.3638 13.8482C23.3863 13.6672 23.0597 13.5846 23.2476 13.3967C23.3418 13.3024 23.4568 13.3805 23.5389 13.4562C23.6147 13.525 23.7072 13.6008 23.569 13.699C23.5493 13.6886 23.5228 13.6719 23.5083 13.6834C23.4788 13.7031 23.5077 13.7314 23.5135 13.7563Z" fill="#11A147"/>
<path fill-rule="evenodd" clip-rule="evenodd" d="M19.5202 12.0349C19.4514 11.9962 19.4549 11.9592 19.4658 11.9187C19.4878 11.8326 19.4433 11.7875 19.3647 11.7632C19.2861 11.7377 19.2253 11.7412 19.204 11.8395C19.1964 11.8834 19.1733 11.9141 19.1253 11.8979C19.0698 11.8777 19.0976 11.8326 19.108 11.7996C19.13 11.7239 19.1496 11.6476 19.1843 11.5753C19.2155 11.503 19.1936 11.3706 19.3074 11.3793C19.4283 11.388 19.5589 11.4169 19.6508 11.5169C19.6919 11.5608 19.7087 11.6366 19.6751 11.6695C19.5774 11.7701 19.5855 11.9123 19.5202 12.0349Z" fill="#0FA046"/>
<path fill-rule="evenodd" clip-rule="evenodd" d="M15.9525 11.2983C15.7658 11.3688 15.6184 11.3278 15.4744 11.3307C15.4091 11.3324 15.4033 11.2833 15.4033 11.2335C15.4079 11.1786 15.4079 11.1231 15.4079 11.0682C15.4149 10.7635 15.523 10.6855 15.8225 10.7705C15.856 10.7797 15.8878 10.7855 15.8901 10.8231C15.8901 10.8751 15.8525 10.8843 15.8063 10.8832C15.7999 10.882 15.7924 10.8803 15.7843 10.8815C15.6947 10.9034 15.534 10.8023 15.5311 10.9364C15.5276 11.0393 15.7028 10.9664 15.7924 11.0011C15.8051 11.0063 15.819 11.0179 15.8386 11.0323C15.782 11.1347 15.6878 11.0774 15.6149 11.0896C15.5716 11.0965 15.5149 11.0774 15.5085 11.148C15.5004 11.2312 15.5583 11.2272 15.6149 11.233C15.7115 11.2445 15.8161 11.2081 15.9525 11.2983Z" fill="#0B9F43"/>
<path fill-rule="evenodd" clip-rule="evenodd" d="M14.4179 11.3424C14.3173 11.3204 14.3312 11.2626 14.3138 11.2221C14.2838 11.1475 14.2242 11.1475 14.1589 11.1527C14.0843 11.1597 14.0439 11.1886 14.0502 11.2713C14.0548 11.3117 14.071 11.3771 13.9959 11.3678C13.9311 11.3597 13.9496 11.2967 13.9462 11.2539C13.9404 11.184 13.9334 11.1123 13.9404 11.0429C13.9496 10.9654 13.8756 10.8469 13.9872 10.8192C14.1023 10.7891 14.2352 10.7677 14.3549 10.8249C14.4069 10.8498 14.448 10.9105 14.4289 10.9596C14.385 11.0834 14.4196 11.2088 14.4179 11.3424Z" fill="#079D3F"/>
<path fill-rule="evenodd" clip-rule="evenodd" d="M13.1973 11.1459C13.2158 10.9893 13.2846 10.8621 13.4563 10.8679C13.621 10.8731 13.7089 10.9875 13.7089 11.1523C13.7089 11.3159 13.6326 11.4286 13.4586 11.4275C13.2817 11.4263 13.2215 11.298 13.1973 11.1459Z" fill="#15A24A"/>
<path fill-rule="evenodd" clip-rule="evenodd" d="M24.2025 14.0831C24.1863 14.2386 24.1095 14.3559 23.932 14.3716C23.7684 14.3849 23.6816 14.2912 23.6689 14.1374C23.6545 13.9819 23.8071 13.8333 23.9626 13.8345C24.099 13.8356 24.1991 13.9345 24.2025 14.0831Z" fill="#11A147"/>
<path fill-rule="evenodd" clip-rule="evenodd" d="M20.957 12.2733C21.0876 12.3786 20.9292 12.4479 20.9234 12.5364C20.8147 12.4861 20.6789 12.5063 20.591 12.4109C20.4974 12.3092 20.5147 12.1941 20.576 12.082C20.6436 11.9635 20.7477 11.9126 20.8754 11.9577C20.9922 11.9993 21.0795 12.0779 21.0229 12.2259C20.9333 12.2421 20.8598 12.1242 20.7338 12.2034C20.8176 12.2421 20.9182 12.1884 20.957 12.2733Z" fill="#0C9F43"/>
<path fill-rule="evenodd" clip-rule="evenodd" d="M17.8121 11.0822C17.7358 11.1718 17.6797 11.1371 17.6271 11.1383C17.5762 11.1383 17.5219 11.0961 17.4589 11.1487C17.5155 11.2412 17.6525 11.1817 17.7057 11.2736C17.6982 11.2869 17.6947 11.3048 17.6849 11.314C17.6086 11.3742 17.4866 11.2285 17.4392 11.3487C17.3959 11.4522 17.5097 11.4164 17.5589 11.4337C17.6144 11.4557 17.6832 11.4476 17.7502 11.5227C17.5947 11.591 17.4092 11.5592 17.345 11.484C17.2438 11.3655 17.3149 11.1551 17.3918 11.0498C17.4826 10.9255 17.6485 11.047 17.8121 11.0822Z" fill="#19A44D"/>
<path fill-rule="evenodd" clip-rule="evenodd" d="M18.7981 11.5852C18.6668 11.5713 18.5177 11.4788 18.4801 11.6951C18.4789 11.702 18.4333 11.7118 18.4194 11.7026C18.4038 11.6939 18.3951 11.6615 18.398 11.643C18.4321 11.506 18.4495 11.3592 18.5102 11.236C18.5807 11.0973 18.7004 11.2146 18.7992 11.2279C18.9172 11.2435 18.9825 11.3152 18.9698 11.4395C18.9582 11.5465 18.8773 11.5754 18.7981 11.5852Z" fill="#0D9F44"/>
<path fill-rule="evenodd" clip-rule="evenodd" d="M20.3623 11.917C20.3496 12.091 20.264 12.2113 20.09 12.2165C19.9345 12.2223 19.8472 12.113 19.8507 11.9581C19.8553 11.7904 19.9368 11.669 20.1178 11.6638C20.2837 11.658 20.3479 11.7696 20.3623 11.917Z" fill="#0FA046"/>
<path fill-rule="evenodd" clip-rule="evenodd" d="M16.4652 11.289C16.4461 11.3301 16.4305 11.3885 16.3756 11.3752C16.2802 11.3526 16.3229 11.2607 16.2998 11.2006C16.2293 11.1318 16.2478 11.2266 16.2258 11.2439C16.2177 11.2867 16.2374 11.352 16.1796 11.3607C16.1085 11.3694 16.1252 11.3012 16.127 11.2607C16.1327 11.1763 16.1339 11.0878 16.157 11.0069C16.1773 10.9375 16.1038 10.8098 16.242 10.8086C16.364 10.808 16.3374 10.9323 16.353 11.0069C16.3692 11.0925 16.3779 11.1289 16.4478 11.0439C16.5201 11.0248 16.5351 11.0774 16.5519 11.1283C16.5611 11.2023 16.5282 11.2538 16.4652 11.289Z" fill="#0EA044"/>
<path fill-rule="evenodd" clip-rule="evenodd" d="M22.6225 13.412C22.6653 13.412 22.7086 13.4686 22.7503 13.4201C22.7821 13.3836 22.7537 13.3478 22.7254 13.3183C22.7046 13.2958 22.6826 13.2744 22.663 13.2501C22.604 13.179 22.5213 13.1108 22.6028 13.0079C22.6768 12.9136 22.763 12.9368 22.8485 12.9963C22.8642 13.0264 22.8589 13.0553 22.8428 13.0824C22.7797 13.1813 22.8971 13.2414 22.8948 13.3258C22.9127 13.405 22.9243 13.4848 22.837 13.5305C22.7283 13.5883 22.6445 13.5351 22.5647 13.4657C22.556 13.4201 22.5728 13.3975 22.6225 13.412Z" fill="#10A146"/>
<path fill-rule="evenodd" clip-rule="evenodd" d="M20.9571 12.2733C20.9125 12.3045 20.8229 12.2034 20.8258 12.2797C20.8316 12.415 20.764 12.4028 20.701 12.3629C20.616 12.3103 20.6113 12.2201 20.6651 12.1369C20.7171 12.0554 20.7906 12.008 20.8796 12.0744C20.9339 12.1143 20.975 12.1745 21.0218 12.2259L20.9571 12.2733Z" fill="#ECF7F0"/>
<path fill-rule="evenodd" clip-rule="evenodd" d="M16.5028 11.1518C16.4859 11.1161 16.4673 11.0811 16.4473 11.0471C16.4675 10.9957 16.486 10.9436 16.5103 10.8939C16.5323 10.8471 16.5704 10.8211 16.6242 10.8384C16.6843 10.8586 16.6797 10.9049 16.6762 10.9535C16.6635 11.0951 16.6519 11.2362 16.6409 11.3778C16.5565 11.4316 16.5351 11.3824 16.5213 11.3096C16.5109 11.257 16.538 11.2003 16.5028 11.1518Z" fill="#17A34C"/>
<path fill-rule="evenodd" clip-rule="evenodd" d="M22.8965 13.3256C22.8445 13.2724 22.789 13.2221 22.7404 13.1655C22.6838 13.0984 22.7057 13.0574 22.7901 13.0464C22.9121 13.0736 22.9867 13.1325 22.9508 13.2724C22.9341 13.2898 22.9156 13.3083 22.8965 13.3256Z" fill="#D7EFE0"/>
<path fill-rule="evenodd" clip-rule="evenodd" d="M22.9508 13.2724C22.8947 13.1996 22.8796 13.0955 22.79 13.0464L22.8502 12.9961C22.9473 13.0649 23.1248 13.1042 22.9508 13.2724Z" fill="#2BAB5B"/>
<path fill-rule="evenodd" clip-rule="evenodd" d="M23.5129 13.7566C23.5053 13.752 23.4955 13.7496 23.492 13.7433C23.4458 13.6577 23.2926 13.5808 23.3446 13.5051C23.41 13.4138 23.4782 13.5219 23.514 13.5999C23.5302 13.6329 23.5499 13.6652 23.5684 13.6994C23.5493 13.7184 23.5302 13.7375 23.5129 13.7566Z" fill="#E6F5EC"/>
<path fill-rule="evenodd" clip-rule="evenodd" d="M22.622 13.4122C22.6035 13.4302 22.5855 13.4487 22.5641 13.4666C22.5399 13.4492 22.5063 13.4371 22.4907 13.4122C22.4612 13.3562 22.3768 13.2816 22.4745 13.2376C22.5566 13.1983 22.5566 13.303 22.5832 13.3539C22.5942 13.3752 22.6081 13.3932 22.622 13.4122Z" fill="#29AA59"/>
<path fill-rule="evenodd" clip-rule="evenodd" d="M16.5026 11.1519C16.587 11.1848 16.5425 11.2553 16.5436 11.3079C16.5483 11.3802 16.5737 11.4045 16.6414 11.3791C16.5003 11.5155 16.5182 11.3334 16.4639 11.2929C16.4783 11.2449 16.4893 11.1981 16.5026 11.1519Z" fill="#DDF1E4"/>
<path fill-rule="evenodd" clip-rule="evenodd" d="M16.2227 11.2443V11.0581C16.3024 11.0835 16.3048 11.1396 16.2967 11.2009C16.2724 11.2154 16.2469 11.2292 16.2227 11.2443Z" fill="#6FC690"/>
<path fill-rule="evenodd" clip-rule="evenodd" d="M14.7812 11.0537C14.7893 10.9693 14.7489 10.8595 14.8928 10.8687C14.998 10.8751 15.0744 10.9173 15.0801 11.0375C15.0859 11.167 15.0102 11.2196 14.8905 11.2283C14.7385 11.2404 14.8003 11.1208 14.7812 11.0537Z" fill="#F5FBF7"/>
<path fill-rule="evenodd" clip-rule="evenodd" d="M21.4488 12.3254C21.5089 12.3584 21.6008 12.3647 21.6205 12.4538C21.6303 12.5 21.5904 12.5307 21.5494 12.5174C21.4731 12.4943 21.3719 12.4931 21.3615 12.3856C21.3586 12.3543 21.3921 12.315 21.4488 12.3254Z" fill="#EFF8F3"/>
<path fill-rule="evenodd" clip-rule="evenodd" d="M19.5741 11.6143C19.5585 11.6745 19.5163 11.6953 19.4677 11.6774C19.4024 11.6537 19.2971 11.6797 19.296 11.5652C19.2937 11.5057 19.3341 11.4877 19.3885 11.5057C19.4602 11.5288 19.5469 11.5259 19.5741 11.6143Z" fill="#DEF2E5"/>
<path fill-rule="evenodd" clip-rule="evenodd" d="M14.1727 10.9028C14.2293 10.9098 14.3189 10.8797 14.3132 10.9763C14.3074 11.0607 14.2218 11.0474 14.1605 11.0485C14.1114 11.0503 14.0409 11.0757 14.0362 10.9872C14.0328 10.882 14.1149 10.915 14.1727 10.9028Z" fill="#F3FAF5"/>
<path fill-rule="evenodd" clip-rule="evenodd" d="M13.4417 10.9834C13.5464 10.9903 13.5984 11.0528 13.6024 11.1511C13.6082 11.2389 13.5649 11.3141 13.4747 11.3222C13.3706 11.332 13.3238 11.2528 13.318 11.1563C13.3122 11.0672 13.3469 11.0025 13.4417 10.9834Z" fill="#F3FAF6"/>
<path fill-rule="evenodd" clip-rule="evenodd" d="M24.0879 14.1031C24.0729 14.1991 24.015 14.2667 23.9035 14.2667C23.8139 14.2655 23.7803 14.2002 23.7896 14.121C23.7982 14.0135 23.8624 13.9441 23.9717 13.9458C24.0578 13.9481 24.0914 14.01 24.0879 14.1031Z" fill="#F9FCFA"/>
<path fill-rule="evenodd" clip-rule="evenodd" d="M18.6625 11.301C18.7209 11.3369 18.8383 11.2999 18.855 11.4155C18.8602 11.4594 18.8117 11.482 18.7729 11.4733C18.6972 11.4565 18.5914 11.4837 18.5822 11.3617C18.5804 11.3241 18.5972 11.2837 18.6625 11.301Z" fill="#E7F5EC"/>
<path fill-rule="evenodd" clip-rule="evenodd" d="M20.2459 11.9305C20.2349 12.0305 20.1858 12.1004 20.0846 12.1004C19.9851 12.1016 19.9499 12.0322 19.9545 11.9409C19.9626 11.8403 20.0198 11.7732 20.1175 11.7692C20.2147 11.7657 20.2459 11.8432 20.2459 11.9305Z" fill="#F5FBF7"/>
</svg>
