<svg width="26" height="26" viewBox="0 0 26 26" fill="none" xmlns="http://www.w3.org/2000/svg">
<path d="M25.048 0.948938C24.7911 0.744521 24.4964 0.592713 24.1808 0.502185C23.8652 0.411656 23.5349 0.38418 23.2087 0.421324C22.8824 0.458468 22.5667 0.559505 22.2796 0.718665C21.9924 0.877826 21.7394 1.09199 21.535 1.34894L11.5 13.9729L7.992 9.55894C7.57932 9.03978 6.97731 8.70581 6.3184 8.63052C5.65949 8.55522 4.99766 8.74476 4.4785 9.15744C3.95934 9.57012 3.62538 10.1721 3.55008 10.831C3.47478 11.4899 3.66432 12.1518 4.077 12.6709L9.542 19.5459C10.016 20.1429 10.737 20.4889 11.499 20.4889C12.261 20.4889 12.981 20.1389 13.456 19.5449L25.45 4.46094C26.31 3.38094 26.13 1.80794 25.048 0.948938ZM20 22.4059H3V5.40594H15.756L18.141 2.40594H1.5C0.67 2.40594 0 3.07594 0 3.90594V23.9059C0 24.7339 0.67 25.4059 1.5 25.4059H21.5C21.8978 25.4059 22.2794 25.2479 22.5607 24.9666C22.842 24.6853 23 24.3038 23 23.9059V10.7559L20 14.5299V22.4059Z" fill="#0DA213"/>
</svg>
