<svg width="212" height="186" viewBox="0 0 212 186" fill="none" xmlns="http://www.w3.org/2000/svg">
<path d="M114.611 39.8955H93.0977V22.6182" stroke="#263238" stroke-linecap="round" stroke-linejoin="round"/>
<path d="M96.9515 36.7546H95.2305V39.8955H96.9515V36.7546Z" stroke="#263238" stroke-linecap="round" stroke-linejoin="round"/>
<path d="M100.527 35.7603H98.8057V39.8955H100.527V35.7603Z" stroke="#263238" stroke-linecap="round" stroke-linejoin="round"/>
<path d="M104.103 34.1013H102.382V39.8955H104.103V34.1013Z" stroke="#263238" stroke-linecap="round" stroke-linejoin="round"/>
<path d="M107.684 32.4424H105.963V39.8954H107.684V32.4424Z" stroke="#263238" stroke-linecap="round" stroke-linejoin="round"/>
<path d="M111.259 30.0999H109.538V39.8954H111.259V30.0999Z" stroke="#263238" stroke-linecap="round" stroke-linejoin="round"/>
<path d="M93.0977 36.8645C93.0977 36.8645 106.89 33.9243 113.487 25.1853" stroke="#263238" stroke-linecap="round" stroke-linejoin="round"/>
<path d="M112.621 24.9128L113.96 24.5447V26.0171" stroke="#263238" stroke-linecap="round" stroke-linejoin="round"/>
<path d="M109.548 14.0415C108.936 13.9172 108.32 13.812 107.693 13.7307" stroke="#263238" stroke-linecap="round" stroke-linejoin="round"/>
<path d="M115.007 49.5476C120.122 52.177 127.197 52.3826 127.197 52.3826C123.636 49.9397 121.188 46.3542 119.95 44.222C123.731 40.9616 126.064 36.5299 126.064 31.6393C126.064 24.0859 120.514 17.6128 112.621 14.907" stroke="#263238" stroke-linecap="round" stroke-linejoin="round"/>
<path d="M104.289 49.7675C107.25 49.7733 110.189 49.2654 112.976 48.2664" stroke="#263238" stroke-linecap="round" stroke-linejoin="round"/>
<path d="M84.875 39.8955C87.9681 44.9152 93.7957 48.582 100.723 49.5238" stroke="#263238" stroke-linecap="round" stroke-linejoin="round"/>
<path d="M82.4893 31.6392C82.4899 32.6017 82.5811 33.5621 82.7618 34.5076" stroke="#263238" stroke-linecap="round" stroke-linejoin="round"/>
<path d="M104.289 13.511C94.6175 13.511 86.4139 18.7697 83.5742 26.0172" stroke="#263238" stroke-linecap="round" stroke-linejoin="round"/>
<path d="M142.014 61.8486C142.014 61.8486 132.831 64.5545 130.761 68.9527C128.691 73.3509 124.546 85.6372 124.546 85.6372C124.546 85.6372 120.664 92.4927 120.664 94.5627C120.664 96.6327 126.401 104.31 128.992 106.38C131.583 108.45 141.254 94.8208 141.254 94.8208L142.014 61.8486Z" fill="#514DF1" stroke="#263238" stroke-linecap="round" stroke-linejoin="round"/>
<path d="M183.529 122.984C183.649 123.089 184.007 127.688 184.007 127.688C184.007 127.688 186.46 132.531 186.431 139.941C186.403 147.351 188.788 185.304 188.788 185.304H130.105C130.105 185.304 134.183 156.85 139.968 142.451C139.968 142.451 140.145 130.633 143.314 127.339C143.314 127.339 141.938 122.491 144.749 121.894C147.56 121.296 183.529 122.984 183.529 122.984Z" fill="#999999"/>
<mask id="mask0_589_1599" style="mask-type:luminance" maskUnits="userSpaceOnUse" x="130" y="121" width="59" height="65">
<path d="M183.529 122.984C183.649 123.089 184.007 127.688 184.007 127.688C184.007 127.688 186.46 132.531 186.431 139.941C186.403 147.351 188.788 185.304 188.788 185.304H130.105C130.105 185.304 134.183 156.85 139.968 142.451C139.968 142.451 140.145 130.633 143.314 127.339C143.314 127.339 141.938 122.491 144.749 121.894C147.56 121.296 183.529 122.984 183.529 122.984Z" fill="white"/>
</mask>
<g mask="url(#mask0_589_1599)">
<path opacity="0.2" d="M188.788 185.304H130.105C130.105 185.304 134.183 156.85 139.968 142.451C139.968 142.451 140.001 140.204 140.303 137.393C143.004 138.693 146.565 140.567 147.56 141.853C149.228 144.004 143.305 147.145 143.305 147.145C143.842 147.727 144.504 148.178 145.241 148.467C145.978 148.755 146.771 148.872 147.56 148.809C150.184 148.546 160.51 146.189 160.51 146.189C160.51 146.189 156.652 148.546 157.121 150.219C157.589 151.892 161.83 157.342 164.134 158.681C166.438 160.019 159.449 157.342 159.449 157.342C159.449 157.342 167.395 170.183 172.175 172.75C176.956 175.318 186.723 167.372 185.322 166.712C183.921 166.053 178.242 158.322 179.275 157.022C179.867 156.271 183.381 158.246 187.253 159.231C187.951 171.727 188.788 185.304 188.788 185.304Z" fill="black"/>
</g>
<path d="M183.529 122.984C183.649 123.089 184.007 127.688 184.007 127.688C184.007 127.688 186.46 132.531 186.431 139.941C186.403 147.351 188.788 185.304 188.788 185.304H130.105C130.105 185.304 134.183 156.85 139.968 142.451C139.968 142.451 140.145 130.633 143.314 127.339C143.314 127.339 141.938 122.491 144.749 121.894C147.56 121.296 183.529 122.984 183.529 122.984Z" stroke="#263238" stroke-linecap="round" stroke-linejoin="round"/>
<path d="M144.568 123.156C144.364 124.525 144.364 125.917 144.568 127.286C148.917 130.194 153.968 131.881 159.192 132.172C167.634 132.531 179.672 130.26 182.975 128.348V123.806L144.568 123.156Z" fill="#263238"/>
<path d="M149.946 125.632C149.946 125.632 149.229 129.423 149.946 130.857C150.663 132.292 157.145 132.684 157.145 132.684L156.94 127.286L149.946 125.632Z" fill="#BFBFBF" stroke="#263238" stroke-linecap="round" stroke-linejoin="round"/>
<path d="M172.175 133.396C172.014 131.336 171.685 129.292 171.191 127.286L169.188 127.339C169.188 127.339 170.263 131.034 169.666 133.396" fill="#999999"/>
<path d="M172.175 133.396C172.014 131.336 171.685 129.292 171.191 127.286L169.188 127.339C169.188 127.339 170.263 131.034 169.666 133.396" stroke="#263238" stroke-linecap="round" stroke-linejoin="round"/>
<path opacity="0.2" d="M141.513 83.8062L141.264 94.8017C139.278 97.5741 137.134 100.23 134.844 102.757C134.724 101.323 134.581 99.6254 134.409 97.694C133.61 88.7685 136.641 81.5975 136.46 81.0669L141.513 83.8062Z" fill="#6268FB"/>
<path d="M137.803 63.4498C139.695 62.5567 141.63 61.7589 143.602 61.0595C143.851 60.4093 143.258 58.4684 149.243 55.3657C155.229 52.2631 163.872 54.204 163.872 54.204L167.219 58.3441C167.219 58.3441 178.86 62.9765 181.561 65.3143C184.262 67.652 186.528 122.419 184.281 124.379C177.865 129.973 150.663 130.738 143.287 123.328C141.69 121.731 140.614 110.171 137.55 93.0182C137.55 93.0182 131.722 79.6324 132.038 72.3084" fill="#514DF1"/>
<path d="M137.803 63.4498C139.695 62.5567 141.63 61.7589 143.602 61.0595C143.851 60.4093 143.258 58.4684 149.243 55.3657C155.229 52.2631 163.872 54.204 163.872 54.204L167.219 58.3441C167.219 58.3441 178.86 62.9765 181.561 65.3143C184.262 67.652 186.528 122.419 184.281 124.379C177.865 129.973 150.663 130.738 143.287 123.328C141.69 121.731 140.614 110.171 137.55 93.0182C137.55 93.0182 131.722 79.6324 132.038 72.3084" stroke="#263238" stroke-linecap="round" stroke-linejoin="round"/>
<path opacity="0.2" d="M167.041 59.2095C167.041 59.2095 167.682 64.9463 161.782 68.7708C161.782 68.7708 159.072 67.0354 157.159 66.8585C155.247 66.6816 154.587 67.3366 154.587 67.3366C154.587 67.3366 154.186 65.0897 155.104 63.6125C156.022 62.1352 157.819 63.273 160.774 67.3366C160.793 67.3366 165.789 64.8841 167.041 59.2095Z" fill="#6268FB"/>
<path opacity="0.2" d="M148.808 65.3194C148.808 65.3194 146.479 65.4246 145.313 67.3368C144.147 69.2491 143.793 69.9662 143.793 69.9662C143.793 69.9662 141.919 68.1113 143.315 62.3745C143.16 64.0309 143.234 65.7006 143.535 67.3368C143.535 67.3368 144.739 62.9004 145.323 62.843C145.906 62.7856 147.068 63.1299 148.808 65.3194Z" fill="#6268FB"/>
<path d="M145.313 52.6218C146.281 53.6705 146.972 54.9446 147.322 56.3281C147.671 57.7116 147.67 59.1607 147.317 60.5434L151.509 67.3367L154.091 61.3226C154.091 61.3226 160.071 59.7689 161.816 55.6958C159.291 50.9718 158.324 45.5705 159.053 40.2638C160.224 31.2571 145.313 52.6218 145.313 52.6218Z" fill="#BFBFBF" stroke="#263238" stroke-linecap="round" stroke-linejoin="round"/>
<path d="M159.425 44.4421C161.276 30.6355 157.14 25.1282 146.283 25.9027C135.427 26.6772 135.25 38.8105 137.841 43.9592C138.711 45.6898 138.429 49.4761 143.826 55.5284C145.896 57.8518 151.332 56.1021 155.223 52.268" fill="#BFBFBF"/>
<path d="M159.425 44.4421C161.276 30.6355 157.14 25.1282 146.283 25.9027C135.427 26.6772 135.25 38.8105 137.841 43.9592C138.711 45.6898 138.429 49.4761 143.826 55.5284C145.896 57.8518 151.332 56.1021 155.223 52.268" stroke="#263238" stroke-linecap="round" stroke-linejoin="round"/>
<path d="M143.276 41.1051C143.276 41.1051 144.342 39.2168 147.254 41.1051" stroke="#263238" stroke-linecap="round" stroke-linejoin="round"/>
<path d="M138.912 41.1052C138.912 41.1052 137.335 39.8001 136.861 41.1052" stroke="#263238" stroke-linecap="round" stroke-linejoin="round"/>
<path d="M145.843 43.9545C145.968 44.4325 145.843 44.8723 145.537 44.9488C145.231 45.0253 144.906 44.705 144.787 44.2317C144.667 43.7585 144.787 43.3139 145.093 43.2374C145.399 43.1609 145.724 43.4812 145.843 43.9545Z" fill="#263238"/>
<path d="M139.987 43.9545C140.111 44.4325 139.987 44.8723 139.681 44.9488C139.375 45.0253 139.05 44.705 138.926 44.2317C138.801 43.7585 138.926 43.3139 139.236 43.2374C139.547 43.1609 139.867 43.4812 139.987 43.9545Z" fill="#263238"/>
<path d="M140.231 42.1619C141.431 43.8112 140.322 45.8908 139.93 47.4971C139.538 49.1034 141.967 49.003 142.646 48.4532" stroke="#263238" stroke-linecap="round" stroke-linejoin="round"/>
<path d="M153.555 43.2229C153.555 43.2229 152.536 39.996 154.721 38.3993C156.906 36.8025 156.758 46.4308 156.758 46.4308L158.842 47.5972C158.842 47.5972 161.849 39.6422 160.396 33.8194C158.942 27.9965 153.053 23.8708 144.926 26.0699C134.021 29.0148 136.473 37.9451 136.473 37.9451C136.473 37.9451 136.951 35.4209 137.468 35.5548C137.984 35.6886 139.715 37.3475 148.172 34.4361C148.172 34.4361 149.128 35.2631 148.913 37.3045C148.698 39.3458 152.326 41.1625 152.89 44.5615L153.555 43.2229Z" fill="#999999"/>
<mask id="mask1_589_1599" style="mask-type:luminance" maskUnits="userSpaceOnUse" x="136" y="25" width="25" height="23">
<path d="M153.556 43.2227C153.556 43.2227 152.537 39.9957 154.722 38.399C156.907 36.8023 156.759 46.4305 156.759 46.4305L158.843 47.597C158.843 47.597 161.85 39.642 160.397 33.8191C158.943 27.9963 153.054 23.8706 144.927 26.0697C134.022 29.0146 136.474 37.9448 136.474 37.9448C136.474 37.9448 136.952 35.4206 137.469 35.5545C137.985 35.6884 139.716 37.3473 148.173 34.4358C148.173 34.4358 149.129 35.2629 148.914 37.3042C148.698 39.3456 152.327 41.1622 152.891 44.5613L153.556 43.2227Z" fill="white"/>
</mask>
<g mask="url(#mask1_589_1599)">
<path opacity="0.4" d="M153.556 43.2227C153.556 43.2227 152.537 39.9957 154.722 38.399C156.907 36.8023 156.759 46.4305 156.759 46.4305L158.843 47.597C158.843 47.597 161.85 39.642 160.397 33.8191C158.943 27.9963 153.054 23.8706 144.927 26.0697C134.022 29.0146 136.474 37.9448 136.474 37.9448C136.474 37.9448 136.952 35.4206 137.469 35.5545C137.985 35.6884 139.716 37.3473 148.173 34.4358C148.173 34.4358 149.129 35.2629 148.914 37.3042C148.698 39.3456 152.327 41.1622 152.891 44.5613L153.556 43.2227Z" fill="black"/>
</g>
<path d="M153.555 43.2229C153.555 43.2229 152.536 39.996 154.721 38.3993C156.906 36.8025 156.758 46.4308 156.758 46.4308L158.842 47.5972C158.842 47.5972 161.849 39.6422 160.396 33.8194C158.942 27.9965 153.053 23.8708 144.926 26.0699C134.021 29.0148 136.473 37.9451 136.473 37.9451C136.473 37.9451 136.951 35.4209 137.468 35.5548C137.984 35.6886 139.715 37.3475 148.172 34.4361C148.172 34.4361 149.128 35.2631 148.913 37.3045C148.698 39.3458 152.326 41.1625 152.89 44.5615L153.555 43.2229Z" stroke="#263238" stroke-linecap="round" stroke-linejoin="round"/>
<path d="M139.495 49.0173C140.213 49.2881 140.989 49.3672 141.747 49.2468L142.225 49.7775L142.66 49.2994C142.66 49.2994 145.328 49.6484 146.638 49.2994C147.947 48.9504 149.305 49.7775 149.984 49.7775C149.984 49.7775 152.891 46.2876 152.604 44.49C152.504 43.7029 152.345 42.9245 152.126 42.1619C152.126 42.1619 152.676 42.6638 152.967 42.5682C153.064 42.5473 153.151 42.497 153.218 42.4242C153.285 42.3515 153.327 42.2598 153.34 42.1619C153.34 42.1619 156.165 47.8987 156.103 52.5455C156.103 52.5455 152.872 57.9141 148.588 58.2201C143.784 58.5595 141.288 56.6903 141.288 56.6903C140.795 55.1823 140.652 53.5814 140.872 52.01C140.54 51.6681 140.156 51.3809 139.734 51.1591C139.549 50.4609 139.468 49.7391 139.495 49.0173Z" fill="#263238"/>
<path d="M137.453 35.5692C136.749 35.209 136.179 34.6337 135.824 33.927C135.47 33.2202 135.351 32.4189 135.483 31.6395C135.933 28.8572 138.003 27.8867 139.489 27.0501C139.489 27.0501 142.52 24.459 148.157 24.1387C154.945 23.7514 161.543 27.3082 159.994 32.5526C159.994 32.5526 150.432 28.4747 148.157 34.4649C148.157 34.4505 141.579 38.2655 137.453 35.5692Z" fill="#263238"/>
<path d="M154.076 40.2639C154.076 40.2639 156.208 36.1668 157.633 37.5245C159.058 38.8823 158.666 40.871 158.183 42.7833C157.7 44.6955 157.533 44.3704 156.629 45.2405C155.725 46.1106 154.765 46.995 154.43 46.0485C154.229 45.5049 154.17 44.9193 154.258 44.3465" fill="#BFBFBF"/>
<path d="M154.076 40.2639C154.076 40.2639 156.208 36.1668 157.633 37.5245C159.058 38.8823 158.666 40.871 158.183 42.7833C157.7 44.6955 157.533 44.3704 156.629 45.2405C155.725 46.1106 154.765 46.995 154.43 46.0485C154.229 45.5049 154.17 44.9193 154.258 44.3465" stroke="#263238" stroke-linecap="round" stroke-linejoin="round"/>
<path d="M147.516 52.1582C143.692 52.2539 142.439 51.6802 142.439 51.6802C142.393 51.7487 142.329 51.8027 142.254 51.8357C142.178 51.8688 142.095 51.8795 142.014 51.8666L142.645 53.1717C142.645 53.1717 143.276 53.5638 144.911 53.5638C146.292 53.5638 147.516 52.1582 147.516 52.1582Z" fill="#514DF1"/>
<path opacity="0.2" d="M144.247 34.5509C144.247 34.5509 142.693 31.4435 146.766 29.5551C150.84 27.6668 157.437 28.3887 159.038 30.5113" stroke="#514DF1" stroke-linecap="round" stroke-linejoin="round"/>
<path opacity="0.2" d="M140.035 35.1294C140.035 35.1294 135.56 34.9382 138.883 30.5735C142.205 26.2087 149.243 24.8367 149.243 24.8367" stroke="#514DF1" stroke-linecap="round" stroke-linejoin="round"/>
<path d="M167.233 58.3491C166.859 60.2185 166.091 61.9868 164.981 63.5364C163.87 65.0861 162.443 66.3816 160.793 67.3368C160.793 67.3368 157.705 62.7378 156.079 62.8429C155.286 62.8907 154.076 65.3193 154.076 65.3193" stroke="#263238" stroke-linecap="round" stroke-linejoin="round"/>
<path d="M143.602 61.0596C143.047 63.2587 143.434 67.6282 143.434 67.6282C143.434 67.6282 144.778 63.2682 145.313 62.8475C146.269 62.0731 149.243 65.8546 149.243 65.8546" stroke="#263238" stroke-linecap="round" stroke-linejoin="round"/>
<path d="M151.495 67.3367L149.229 68.8235C149.229 68.8235 151.781 71.6679 151.48 74.2543C151.179 76.8406 152.097 82.5344 152.097 82.5344" stroke="#263238" stroke-linecap="round" stroke-linejoin="round"/>
<path d="M129.843 93.4773C131.389 96.5162 132.007 99.9426 131.621 103.33C131.621 103.33 128.274 107.968 125.707 108.661C119.464 110.344 115.701 96.4653 108.201 77.8302C107.722 76.6351 111.982 70.3198 111.982 70.3198L124.369 89.5907C125.527 89.7494 126.629 90.1857 127.582 90.8625C128.536 91.5392 129.311 92.4363 129.843 93.4773Z" fill="#BFBFBF" stroke="#263238" stroke-linecap="round" stroke-linejoin="round"/>
<path d="M111.46 71.7206L108.281 67.418C108.281 67.418 103.501 64.6739 102.97 66.3137C102.191 68.771 98.2705 69.4976 98.2705 69.4976C98.6147 70.7549 102.444 76.3579 104.614 77.6247C106.785 78.8916 107.005 79.2645 107.899 79.537C110.17 80.1441 110.71 78.5139 110.71 78.5139" fill="#BFBFBF"/>
<path d="M111.46 71.7206L108.281 67.418C108.281 67.418 103.501 64.6739 102.97 66.3137C102.191 68.771 98.2705 69.4976 98.2705 69.4976C98.6147 70.7549 102.444 76.3579 104.614 77.6247C106.785 78.8916 107.005 79.2645 107.899 79.537C110.17 80.1441 110.71 78.5139 110.71 78.5139" stroke="#263238" stroke-linecap="round" stroke-linejoin="round"/>
<path d="M86.1618 90.4559C86.1618 90.4559 68.6981 74.2304 90.3879 68.3693C112.078 62.5082 106.374 83.9734 106.374 83.9734L104.94 84.2219C104.94 84.2219 110.624 65.0133 91.1242 70.0234C71.6238 75.0335 86.9698 89.4759 86.9698 89.4759L86.1618 90.4559Z" fill="#757575" stroke="#263238" stroke-linecap="round" stroke-linejoin="round"/>
<path d="M109.372 74.6558C105.705 72.8678 106.981 69.5931 103.415 67.5278C102.459 66.9733 99.3562 67.3127 98.3762 66.6243C96.9037 65.5965 97.42 64.8889 97.4583 64.7646C97.5061 64.4826 98.5387 65.4005 102.057 64.4061C103.463 64.0093 107.316 65.214 108.521 66.2658C111.351 68.723 113.813 71.6201 113.545 73.8861C113.392 75.1912 111.939 75.7171 111.939 75.7171" fill="#BFBFBF"/>
<path d="M109.372 74.6558C105.705 72.8678 106.981 69.5931 103.415 67.5278C102.459 66.9733 99.3562 67.3127 98.3762 66.6243C96.9037 65.5965 97.42 64.8889 97.4583 64.7646C97.5061 64.4826 98.5387 65.4005 102.057 64.4061C103.463 64.0093 107.316 65.214 108.521 66.2658C111.351 68.723 113.813 71.6201 113.545 73.8861C113.392 75.1912 111.939 75.7171 111.939 75.7171" stroke="#263238" stroke-linecap="round" stroke-linejoin="round"/>
<path d="M98.855 69.1102C98.855 69.1102 101.929 68.3597 102.909 68.3692C104.257 68.3692 104.683 68.57 105.003 69.1437C105.089 69.3482 105.128 69.5692 105.118 69.7908C105.109 70.0124 105.05 70.229 104.946 70.4249C105.44 70.6596 105.832 71.0656 106.05 71.5675C106.156 72.1122 106.044 72.6768 105.739 73.1403C106.272 73.2977 106.755 73.591 107.14 73.9913C107.331 74.1767 107.445 74.4275 107.459 74.6934C107.474 74.9593 107.387 75.2208 107.216 75.4255C107.216 75.4255 108.947 76.6111 107.986 77.3378C107.025 78.0644 104.401 79.1114 103.205 78.9966C102.01 78.8819 94.519 69.7747 98.855 69.1102Z" fill="#BFBFBF" stroke="#263238" stroke-linecap="round" stroke-linejoin="round"/>
<path d="M104.945 70.425C104.945 70.425 100.059 71.9214 98.7305 71.8879" stroke="#263238" stroke-linecap="round" stroke-linejoin="round"/>
<path d="M105.725 73.1404C105.725 73.1404 101.566 74.6367 100.71 74.804" stroke="#263238" stroke-linecap="round" stroke-linejoin="round"/>
<path d="M107.216 75.4016C105.724 76.0267 104.194 76.5568 102.636 76.9888" stroke="#263238" stroke-linecap="round" stroke-linejoin="round"/>
<path d="M85.8369 87.9843C85.8369 87.9843 91.1913 78.8246 104.481 80.4644L115.405 103.201C115.405 103.201 108.55 116.205 89.1547 113.126L85.8369 87.9843Z" fill="#757575" stroke="#263238" stroke-linecap="round" stroke-linejoin="round"/>
<path d="M90.9806 106.165C90.9806 106.165 79.2919 97.4931 71.3799 106.328L74.9749 109.019C74.9749 109.019 78.6608 101.27 91.1097 110.836" fill="#757575"/>
<path d="M90.9806 106.165C90.9806 106.165 79.2919 97.4931 71.3799 106.328L74.9749 109.019C74.9749 109.019 78.6608 101.27 91.1097 110.836" stroke="#263238" stroke-linecap="round" stroke-linejoin="round"/>
<path d="M86.9512 88.08C86.9512 88.08 99.5578 89.323 103.464 81.0859L86.9512 88.08Z" fill="#757575"/>
<path d="M86.9512 88.08C86.9512 88.08 99.5578 89.323 103.464 81.0859" stroke="#263238" stroke-linecap="round" stroke-linejoin="round"/>
<path d="M64.7207 107.102C64.7207 107.102 69.683 103.617 74.0812 106.184C75.3133 106.885 76.297 107.952 76.8965 109.237C77.496 110.521 77.6816 111.961 77.4277 113.355C77.4277 113.355 70.8256 113.872 64.7207 107.102Z" fill="#757575" stroke="#263238" stroke-linecap="round" stroke-linejoin="round"/>
<path d="M67.1494 107.121C67.1494 107.121 74.8654 109.182 77.447 113.365" stroke="#263238" stroke-linecap="round" stroke-linejoin="round"/>
<path d="M96.9277 82.2141L96.0337 78.49C96.0337 78.49 91.0571 78.3561 89.3408 81.2197L91.559 84.1551" fill="#757575"/>
<path d="M96.9277 82.2141L96.0337 78.49C96.0337 78.49 91.0571 78.3561 89.3408 81.2197L91.559 84.1551" stroke="#263238" stroke-linecap="round" stroke-linejoin="round"/>
<path d="M96.6407 82.9934C95.6556 83.5377 94.5681 83.8714 93.4473 83.9734" stroke="#263238" stroke-linecap="round" stroke-linejoin="round"/>
<path d="M92.4773 106.906C92.4773 106.906 93.6007 108.431 92.1904 110.372" stroke="#263238" stroke-linecap="round" stroke-linejoin="round"/>
<path opacity="0.2" d="M182.057 88.147C182.057 88.147 177.434 104.086 167.237 112.05C162.581 115.688 141.269 109.818 141.269 109.818L142.65 101.557L149.63 98.2486C149.63 98.2486 161.983 78.9108 168.676 76.9938C175.369 75.0767 182.057 88.147 182.057 88.147Z" fill="#6268FB"/>
<path d="M176.033 65.7209C171.114 65.8596 158.182 89.5573 158.182 89.5573C154.678 90.8863 156.346 93.9555 156.346 93.9555C156.346 93.9555 164.564 104.377 166.118 105.267C169.942 107.466 171.324 103.617 171.324 103.617C171.324 103.617 187.473 88.9454 186.373 76.9985C185.274 65.0516 181.593 65.3193 181.593 65.3193" fill="#514DF1"/>
<path d="M176.033 65.7209C171.114 65.8596 158.182 89.5573 158.182 89.5573C154.678 90.8863 156.346 93.9555 156.346 93.9555C156.346 93.9555 164.564 104.377 166.118 105.267C169.942 107.466 171.324 103.617 171.324 103.617C171.324 103.617 187.473 88.9454 186.373 76.9985C185.274 65.0516 181.593 65.3193 181.593 65.3193" stroke="#263238" stroke-linecap="round" stroke-linejoin="round"/>
<path d="M157.207 93.0278L152.283 98.3487C141.818 97.3304 122.739 105.257 117.222 102.374C114.014 100.696 106.312 102.422 105.165 103C104.018 103.579 101.594 106.581 102.493 106.968C103.391 107.355 105.361 105.563 106.48 105.725C107.509 105.806 108.544 105.796 109.573 105.697C109.573 105.697 104.72 110.3 103.635 110.496C102.55 110.692 97.0378 113.044 99.0361 113.456C101.833 114.029 102.899 113.742 102.899 113.742C102.899 113.742 105.423 115.535 107.302 115.726C108.258 115.827 113.565 114.871 113.565 114.871L118.412 110.248C118.412 110.248 150.672 111.926 156.347 109.54C163.747 106.433 166.118 103.866 166.118 103.866C166.118 103.866 162.987 94.7823 157.207 93.0278Z" fill="#BFBFBF" stroke="#263238" stroke-linecap="round" stroke-linejoin="round"/>
<path d="M152.507 132.057C152.397 132.033 150.012 146.155 153.387 149.143C153.387 149.143 155.338 155.889 154.974 160.526C154.611 165.163 157.145 174.6 157.145 174.6L158.837 185.304" stroke="#263238" stroke-linecap="round" stroke-linejoin="round"/>
<path d="M154.965 132.473C154.965 132.473 153.77 139.462 154.248 141.972C154.726 144.482 153.689 147.059 152.235 147.145" stroke="#263238" stroke-linecap="round" stroke-linejoin="round"/>
<path d="M177.258 130.341C177.258 130.341 179.428 141.982 182.995 142.943" stroke="#263238" stroke-linecap="round" stroke-linejoin="round"/>
<path d="M181.617 128.735C182.721 134.563 183.176 140.495 182.975 146.423C182.693 156.673 185.011 177.23 185.227 179.739C185.348 181.592 185.348 183.451 185.227 185.304" stroke="#263238" stroke-linecap="round" stroke-linejoin="round"/>
<path d="M162.456 145.52C161.538 145.916 150.304 149.263 148.152 151.892" stroke="#263238" stroke-linecap="round" stroke-linejoin="round"/>
<path d="M154.966 152.16C154.966 152.16 162.725 161.573 166.492 162.529" stroke="#263238" stroke-linecap="round" stroke-linejoin="round"/>
<path d="M151.585 153.087C151.585 153.087 139.667 164.8 137.568 163.471" stroke="#263238" stroke-linecap="round" stroke-linejoin="round"/>
<path d="M155.304 166.712C155.304 166.712 152.015 179.716 152.235 181.159C152.455 182.603 151.116 185.304 151.116 185.304" stroke="#263238" stroke-linecap="round" stroke-linejoin="round"/>
<path d="M152.097 115.736C152.097 115.736 152.818 119.484 152.097 121.765C151.375 124.045 152.163 127.501 153.153 127.683" stroke="#263238" stroke-linecap="round" stroke-linejoin="round"/>
<path d="M124.369 89.5906C124.369 89.5906 128.194 93.7211 128.194 96.9289" stroke="#263238" stroke-linecap="round" stroke-linejoin="round"/>
<path d="M75.9652 115.736C75.9652 115.736 75.6497 116.754 75.2051 118.499" stroke="#263238" stroke-linecap="round" stroke-linejoin="round"/>
<path d="M74.5214 121.339C74.2394 122.615 73.9382 124.064 73.6514 125.641" stroke="#263238" stroke-linecap="round" stroke-linejoin="round" stroke-dasharray="6.11 6.11"/>
<path d="M73.402 127.081C73.2538 127.994 73.1056 128.94 72.9766 129.92" stroke="#263238" stroke-linecap="round" stroke-linejoin="round"/>
<path d="M69.4537 113.245C69.4537 113.245 68.8657 114.158 68.0195 115.722" stroke="#263238" stroke-linecap="round" stroke-linejoin="round"/>
<path d="M66.1504 119.417C65.2753 121.288 64.4982 123.203 63.8223 125.154" stroke="#263238" stroke-linecap="round" stroke-linejoin="round" stroke-dasharray="8.66 8.66"/>
<path d="M63.1769 127.143C62.9091 128.051 62.6669 128.977 62.4502 129.92" stroke="#263238" stroke-linecap="round" stroke-linejoin="round"/>
<path d="M64.7201 109.306C63.8295 109.658 62.9901 110.127 62.2246 110.702" stroke="#263238" stroke-linecap="round" stroke-linejoin="round"/>
<path d="M59.6442 112.691C58.4054 113.75 57.2542 114.907 56.2021 116.152" stroke="#263238" stroke-linecap="round" stroke-linejoin="round" stroke-dasharray="6.82 6.82"/>
<path d="M55.188 117.428C54.6174 118.195 54.0906 118.993 53.6104 119.819" stroke="#263238" stroke-linecap="round" stroke-linejoin="round"/>
<path d="M158.183 89.5571C161.778 90.1021 167.036 96.6755 167.993 99.1854" stroke="#263238" stroke-linecap="round" stroke-linejoin="round"/>
<path d="M185.226 81.0859C185.226 81.0859 176.597 86.3447 167.992 86.8753" stroke="#263238" stroke-linecap="round" stroke-linejoin="round"/>
<path d="M123.891 86.8753C123.891 86.8753 128.327 85.9765 130.584 89.5907C131.977 91.8502 132.987 94.3251 133.571 96.9147" stroke="#263238" stroke-linecap="round" stroke-linejoin="round"/>
<path d="M130.105 78.968C130.105 78.968 132.252 83.677 134.767 85.6323" stroke="#263238" stroke-linecap="round" stroke-linejoin="round"/>
<path d="M152.097 92.6121C152.296 94.5174 152.357 96.4347 152.278 98.3489" stroke="#263238" stroke-linecap="round" stroke-linejoin="round"/>
<path d="M145.165 114.603C145.165 114.603 154.607 125.23 169.188 122.367" stroke="#263238" stroke-linecap="round" stroke-linejoin="round"/>
<path d="M152.896 70.1428C152.891 70.2476 152.856 70.3487 152.794 70.4335C152.732 70.5184 152.647 70.5833 152.549 70.6201C152.451 70.657 152.344 70.6643 152.242 70.641C152.14 70.6177 152.046 70.5649 151.974 70.4892C151.901 70.4134 151.853 70.3181 151.834 70.2149C151.815 70.1117 151.827 70.0053 151.868 69.9089C151.909 69.8124 151.978 69.7302 152.065 69.6723C152.153 69.6145 152.255 69.5836 152.36 69.5835C152.505 69.5873 152.643 69.6482 152.743 69.7529C152.843 69.8577 152.898 69.9978 152.896 70.1428Z" fill="#263238"/>
<path d="M153.56 84.2219C153.555 84.3267 153.52 84.4278 153.458 84.5126C153.396 84.5975 153.311 84.6624 153.213 84.6992C153.115 84.7361 153.008 84.7434 152.906 84.7201C152.804 84.6968 152.71 84.644 152.638 84.5683C152.565 84.4925 152.517 84.3972 152.498 84.294C152.479 84.1909 152.491 84.0844 152.532 83.988C152.573 83.8915 152.642 83.8093 152.729 83.7514C152.817 83.6936 152.919 83.6627 153.024 83.6626C153.096 83.6638 153.167 83.6793 153.233 83.7082C153.299 83.737 153.359 83.7786 153.408 83.8306C153.458 83.8827 153.497 83.944 153.523 84.0112C153.549 84.0783 153.561 84.15 153.56 84.2219Z" fill="#263238"/>
<path d="M3.89551 185.304H208.508" stroke="#263238" stroke-linecap="round" stroke-linejoin="round"/>
<path d="M45.7344 157.844C45.7344 157.844 53.4551 155.133 48.4259 139.878C43.3966 124.623 49.8314 124.958 52.6998 117.242C55.5682 109.526 51.3325 104.301 51.3325 104.301" stroke="#263238" stroke-width="3" stroke-linecap="round" stroke-linejoin="round"/>
<path d="M49.5502 154.072H27.0811C27.0811 154.072 30.112 176.905 30.9869 183.512C31.1446 184.712 32.1007 185.304 33.2577 185.304H64.4084C65.5654 185.304 66.5215 184.712 66.6793 183.512C67.5541 176.905 70.5851 154.072 70.5851 154.072H49.5502Z" fill="#263238"/>
<path d="M26.2486 152.16H71.4163C71.699 152.16 71.9702 152.272 72.1701 152.472C72.37 152.672 72.4824 152.943 72.4824 153.226V154.914C72.4824 155.196 72.37 155.468 72.1701 155.667C71.9702 155.867 71.699 155.98 71.4163 155.98H26.2486C25.9646 155.98 25.6922 155.867 25.4914 155.666C25.2906 155.465 25.1777 155.193 25.1777 154.909V153.221C25.1777 153.081 25.2054 152.941 25.2593 152.811C25.3131 152.682 25.3919 152.563 25.4914 152.464C25.5908 152.365 25.7089 152.286 25.8388 152.232C25.9687 152.178 26.108 152.15 26.2486 152.15V152.16Z" fill="#263238"/>
<path d="M29.4756 155.984H52.265" stroke="#514DF1" stroke-linecap="round" stroke-linejoin="round"/>
<path d="M55.1328 155.984H56.8873" stroke="#514DF1" stroke-linecap="round" stroke-linejoin="round"/>
<path d="M67.4055 155.984H64.2168" stroke="#514DF1" stroke-linecap="round" stroke-linejoin="round"/>
<path d="M31.2305 163.471H40.156" stroke="#514DF1" stroke-linecap="round" stroke-linejoin="round"/>
<path d="M45.252 163.471H47.6423" stroke="#514DF1" stroke-linecap="round" stroke-linejoin="round"/>
<path d="M66.7644 163.471H58.1592" stroke="#514DF1" stroke-linecap="round" stroke-linejoin="round"/>
<path d="M65.8088 169.686H64.2168" stroke="#514DF1" stroke-linecap="round" stroke-linejoin="round"/>
<path d="M40.1551 169.686H36.8086" stroke="#514DF1" stroke-linecap="round" stroke-linejoin="round"/>
<path d="M56.0078 175.743H61.5056" stroke="#514DF1" stroke-linecap="round" stroke-linejoin="round"/>
<path d="M43.1814 175.743H34.5762" stroke="#514DF1" stroke-linecap="round" stroke-linejoin="round"/>
<path d="M32.8223 181.159H35.6907" stroke="#514DF1" stroke-linecap="round" stroke-linejoin="round"/>
<path d="M40.1562 181.159H56.8886" stroke="#514DF1" stroke-linecap="round" stroke-linejoin="round"/>
<path d="M65.0148 181.159H62.4619" stroke="#514DF1" stroke-linecap="round" stroke-linejoin="round"/>
<path d="M57.0408 168.729C57.0418 170.353 56.5611 171.941 55.6598 173.291C54.7584 174.642 53.4768 175.694 51.9769 176.316C50.4771 176.938 48.8266 177.102 47.234 176.786C45.6414 176.469 44.1783 175.688 43.0299 174.54C41.8815 173.392 41.0992 171.93 40.7821 170.337C40.465 168.745 40.6273 167.094 41.2484 165.594C41.8695 164.094 42.9216 162.812 44.2716 161.91C45.6216 161.007 47.2087 160.526 48.8324 160.526C51.0086 160.526 53.0957 161.39 54.6349 162.928C56.1742 164.467 57.0395 166.553 57.0408 168.729Z" fill="#6268FB" stroke="#263238" stroke-linecap="round" stroke-linejoin="round"/>
<path d="M48.1915 164.953V164.403H49.4727V164.953C50.5818 165.125 51.1459 165.756 51.1459 166.76V166.994H49.6687V166.712C49.6687 166.181 49.3866 165.981 48.8895 165.981C48.3923 165.981 48.1102 166.181 48.1102 166.712C48.1102 167.243 48.3923 167.606 49.444 168.232C50.7204 168.992 51.1603 169.571 51.1603 170.417C51.1603 171.421 50.5818 172.066 49.4727 172.234V172.774H48.1915V172.21C47.0728 172.043 46.5039 171.397 46.5039 170.393V169.886H47.9811V170.47C47.9811 170.996 48.2919 171.187 48.7891 171.187C49.2863 171.187 49.6018 170.996 49.6018 170.47C49.6018 169.944 49.3149 169.561 48.2632 168.945C46.9868 168.199 46.5469 167.606 46.5469 166.76C46.5469 165.756 47.1015 165.135 48.1915 164.953Z" fill="#514DF1" stroke="#263238" stroke-linecap="round" stroke-linejoin="round"/>
<path d="M55.6444 168.73C55.6472 170.078 55.2501 171.396 54.5033 172.518C53.7564 173.641 52.6935 174.516 51.4489 175.034C50.2044 175.552 48.8342 175.689 47.5117 175.427C46.1893 175.166 44.9741 174.518 44.0199 173.566C43.0658 172.614 42.4155 171.4 42.1515 170.078C41.8875 168.757 42.0215 167.386 42.5367 166.14C43.0519 164.895 43.9251 163.83 45.0457 163.081C46.1663 162.332 47.484 161.932 48.832 161.932C50.6359 161.933 52.3657 162.649 53.6426 163.923C54.9195 165.197 55.6393 166.926 55.6444 168.73Z" stroke="#263238" stroke-linecap="round" stroke-linejoin="round"/>
<path d="M47.8096 137.894C47.8096 137.894 49.4493 129.399 56.3144 128.735C63.1794 128.07 63.9634 122.692 63.9634 122.692" stroke="#263238" stroke-width="3" stroke-linecap="round" stroke-linejoin="round"/>
<path d="M48.5071 123.165C48.5071 123.165 46.8386 122.362 40.6525 118.595C34.4663 114.828 34.7053 108.823 34.7053 108.823" stroke="#263238" stroke-width="3" stroke-linecap="round" stroke-linejoin="round"/>
<path d="M49.8317 145.519C49.8317 145.519 37.7223 145.041 35.9248 135.107" stroke="#263238" stroke-width="3" stroke-linecap="round" stroke-linejoin="round"/>
<path d="M57.4852 100.055C57.3543 101.127 56.9085 102.136 56.2042 102.955C55.4998 103.773 54.5686 104.364 53.5282 104.654C52.4878 104.943 51.3851 104.917 50.3594 104.58C49.3337 104.242 48.4311 103.608 47.7658 102.757C47.1005 101.907 46.7023 100.878 46.6217 99.8013C46.5411 98.7245 46.7815 97.648 47.3127 96.7078C47.8439 95.7677 48.642 95.0062 49.606 94.5197C50.57 94.0331 51.6566 93.8434 52.7284 93.9744C54.1656 94.1501 55.4741 94.8895 56.3661 96.0299C57.2582 97.1702 57.6607 98.6183 57.4852 100.055Z" fill="#514DF1"/>
<path d="M57.4852 100.055C57.3543 101.127 56.9085 102.136 56.2042 102.955C55.4998 103.773 54.5686 104.364 53.5282 104.654C52.4878 104.943 51.3851 104.917 50.3594 104.58C49.3337 104.242 48.4311 103.608 47.7658 102.757C47.1005 101.907 46.7023 100.878 46.6217 99.8013C46.5411 98.7245 46.7815 97.648 47.3127 96.7078C47.8439 95.7677 48.642 95.0062 49.606 94.5197C50.57 94.0331 51.6566 93.8434 52.7284 93.9744C54.1656 94.1501 55.4741 94.8895 56.3661 96.0299C57.2582 97.1702 57.6607 98.6183 57.4852 100.055Z" stroke="#263238" stroke-linecap="round" stroke-linejoin="round"/>
<path d="M56.4429 99.9262C56.3367 100.792 55.976 101.607 55.4064 102.268C54.8368 102.928 54.0839 103.405 53.2431 103.638C52.4023 103.871 51.5114 103.848 50.6832 103.574C49.855 103.3 49.1268 102.787 48.5907 102.098C48.0546 101.41 47.7347 100.578 47.6717 99.7083C47.6086 98.8382 47.8052 97.9689 48.2365 97.2106C48.6678 96.4523 49.3144 95.839 50.0944 95.4484C50.8744 95.0578 51.7529 94.9075 52.6184 95.0164C53.7764 95.1609 54.8296 95.7592 55.5468 96.6798C56.2639 97.6004 56.5862 98.7681 56.4429 99.9262Z" stroke="#263238" stroke-linecap="round" stroke-linejoin="round"/>
<path d="M51.4098 97.2015C51.5761 97.0135 51.8096 96.8984 52.06 96.8811L52.103 96.5178L52.7341 96.5943L52.6863 96.9576C52.8082 96.9953 52.9213 97.057 53.0191 97.1391C53.1168 97.2212 53.197 97.3221 53.2552 97.4357C53.3739 97.6958 53.4122 97.9855 53.3651 98.2675V98.4205L52.6385 98.3345L52.6624 98.1289C52.6918 98.0008 52.6731 97.8664 52.6098 97.7512C52.5786 97.7074 52.5378 97.6714 52.4906 97.6457C52.4434 97.62 52.391 97.6054 52.3373 97.603C52.285 97.5923 52.2308 97.5941 52.1793 97.6082C52.1278 97.6223 52.0804 97.6484 52.0409 97.6843C51.9516 97.7808 51.9006 97.9066 51.8975 98.0381C51.878 98.1715 51.8912 98.3076 51.9357 98.4349C51.9804 98.5504 52.0398 98.6597 52.1126 98.7599C52.1843 98.8556 52.2943 98.9751 52.4281 99.1233C52.5705 99.2607 52.7016 99.4094 52.8201 99.5679C52.925 99.7127 53.0042 99.8744 53.0544 100.046C53.1131 100.249 53.1278 100.463 53.0974 100.672C53.0747 100.959 52.9665 101.232 52.7867 101.456C52.7022 101.55 52.6 101.626 52.486 101.68C52.3719 101.735 52.2483 101.766 52.1221 101.772L52.0791 102.126L51.4481 102.049L51.4959 101.695C51.3731 101.658 51.259 101.597 51.1604 101.515C51.0619 101.432 50.9809 101.331 50.9222 101.217C50.8008 100.958 50.7624 100.667 50.8122 100.385L50.8505 100.051L51.5772 100.137L51.5293 100.519C51.4911 100.835 51.6058 100.997 51.8688 101.045C52.1317 101.093 52.2847 100.935 52.3229 100.62C52.342 100.485 52.3289 100.347 52.2847 100.218C52.2421 100.102 52.1825 99.992 52.1078 99.893C52.0098 99.7673 51.9045 99.6476 51.7923 99.5344C51.651 99.3942 51.52 99.2441 51.4003 99.085C51.297 98.94 51.2194 98.7783 51.1708 98.607C51.1047 98.37 51.0936 98.121 51.1384 97.8791C51.1831 97.6372 51.2825 97.4087 51.4289 97.211L51.4098 97.2015Z" fill="#263238"/>
<path d="M40.3031 104.392C40.4482 105.461 40.2729 106.55 39.7993 107.52C39.3257 108.491 38.5751 109.299 37.6423 109.842C36.7096 110.386 35.6366 110.641 34.559 110.575C33.4814 110.509 32.4476 110.125 31.5883 109.471C30.7289 108.818 30.0826 107.924 29.7311 106.903C29.3796 105.882 29.3386 104.78 29.6133 103.736C29.888 102.692 30.4662 101.753 31.2746 101.037C32.083 100.322 33.0854 99.8621 34.1551 99.7161C34.8659 99.6192 35.5887 99.6632 36.2824 99.8457C36.9761 100.028 37.627 100.346 38.1979 100.78C38.7689 101.214 39.2487 101.757 39.6099 102.376C39.9711 102.996 40.2066 103.681 40.3031 104.392Z" fill="#514DF1"/>
<path d="M40.3031 104.392C40.4482 105.461 40.2729 106.55 39.7993 107.52C39.3257 108.491 38.5751 109.299 37.6423 109.842C36.7096 110.386 35.6366 110.641 34.559 110.575C33.4814 110.509 32.4476 110.125 31.5883 109.471C30.7289 108.818 30.0826 107.924 29.7311 106.903C29.3796 105.882 29.3386 104.78 29.6133 103.736C29.888 102.692 30.4662 101.753 31.2746 101.037C32.083 100.322 33.0854 99.8621 34.1551 99.7161C34.8659 99.6192 35.5887 99.6632 36.2824 99.8457C36.9761 100.028 37.627 100.346 38.1979 100.78C38.7689 101.214 39.2487 101.757 39.6099 102.376C39.9711 102.996 40.2066 103.681 40.3031 104.392Z" stroke="#263238" stroke-linecap="round" stroke-linejoin="round"/>
<path d="M39.271 104.53C39.3846 105.393 39.2401 106.271 38.8557 107.052C38.4712 107.833 37.864 108.483 37.1107 108.919C36.3573 109.356 35.4916 109.559 34.6227 109.504C33.7538 109.45 32.9207 109.138 32.2283 108.611C31.536 108.083 31.0155 107.362 30.7325 106.538C30.4495 105.715 30.4167 104.826 30.6382 103.984C30.8597 103.142 31.3256 102.385 31.9771 101.807C32.6286 101.23 33.4366 100.858 34.2991 100.739C34.8747 100.66 35.4604 100.695 36.0223 100.843C36.5843 100.991 37.1115 101.248 37.5736 101.6C38.0356 101.953 38.4235 102.393 38.7148 102.896C39.0061 103.399 39.1951 103.954 39.271 104.53Z" stroke="#263238" stroke-linecap="round" stroke-linejoin="round"/>
<path d="M33.7066 103.163C33.8196 102.937 34.0172 102.765 34.2564 102.685L34.2038 102.321L34.8301 102.235L34.8827 102.599C35.136 102.609 35.375 102.719 35.5472 102.905C35.7287 103.125 35.8402 103.395 35.8675 103.679V103.832L35.1408 103.928L35.1169 103.727C35.1101 103.597 35.0576 103.473 34.9687 103.378C34.8827 103.314 34.775 103.286 34.6687 103.3C34.5624 103.315 34.4659 103.37 34.3998 103.454C34.3386 103.57 34.3216 103.705 34.352 103.832C34.366 103.966 34.4137 104.094 34.4907 104.205C34.5611 104.308 34.6465 104.4 34.744 104.477C34.8396 104.549 34.9687 104.64 35.1408 104.745C35.3079 104.845 35.4676 104.957 35.6189 105.08C35.7563 105.191 35.8729 105.325 35.9631 105.477C36.0737 105.657 36.1424 105.859 36.1639 106.069C36.2187 106.352 36.1836 106.645 36.0635 106.906C36.0059 107.019 35.9264 107.12 35.8295 107.202C35.7327 107.284 35.6204 107.346 35.4994 107.384L35.5472 107.743L34.9209 107.824L34.8731 107.47C34.7461 107.467 34.621 107.438 34.5053 107.385C34.3895 107.333 34.2854 107.257 34.199 107.164C34.0157 106.943 33.9055 106.671 33.8835 106.385L33.8357 106.055L34.5624 105.955L34.615 106.337C34.6532 106.653 34.811 106.815 35.093 106.758C35.3751 106.7 35.4659 106.543 35.4229 106.227C35.4089 106.093 35.3612 105.965 35.2843 105.854C35.2138 105.751 35.1284 105.66 35.0309 105.582C34.9353 105.51 34.8062 105.419 34.6341 105.314C34.4672 105.215 34.3075 105.105 34.156 104.984C34.0196 104.871 33.9033 104.735 33.8118 104.583C33.6881 104.367 33.6145 104.126 33.5963 103.878C33.5781 103.629 33.6158 103.38 33.7066 103.148V103.163Z" fill="#263238"/>
<path d="M39.9878 130.504C40.0733 131.58 39.8377 132.657 39.3108 133.6C38.7839 134.542 37.9893 135.307 37.0276 135.798C36.0659 136.289 34.9803 136.484 33.9079 136.358C32.8355 136.232 31.8246 135.791 31.003 135.09C30.1814 134.389 29.586 133.461 29.2921 132.422C28.9982 131.383 29.0189 130.28 29.3518 129.253C29.6846 128.226 30.3145 127.32 31.1619 126.651C32.0093 125.982 33.036 125.579 34.1124 125.493C34.8273 125.436 35.5465 125.52 36.2289 125.741C36.9113 125.961 37.5434 126.315 38.0892 126.78C38.6349 127.245 39.0835 127.814 39.4093 128.453C39.7351 129.092 39.9317 129.789 39.9878 130.504Z" fill="#514DF1"/>
<path d="M39.9878 130.504C40.0733 131.58 39.8377 132.657 39.3108 133.6C38.7839 134.542 37.9893 135.307 37.0276 135.798C36.0659 136.289 34.9803 136.484 33.9079 136.358C32.8355 136.232 31.8246 135.791 31.003 135.09C30.1814 134.389 29.586 133.461 29.2921 132.422C28.9982 131.383 29.0189 130.28 29.3518 129.253C29.6846 128.226 30.3145 127.32 31.1619 126.651C32.0093 125.982 33.036 125.579 34.1124 125.493C34.8273 125.436 35.5465 125.52 36.2289 125.741C36.9113 125.961 37.5434 126.315 38.0892 126.78C38.6349 127.245 39.0835 127.814 39.4093 128.453C39.7351 129.092 39.9317 129.789 39.9878 130.504Z" stroke="#263238" stroke-linecap="round" stroke-linejoin="round"/>
<path d="M38.9412 130.585C39.0131 131.454 38.8255 132.325 38.4022 133.087C37.9789 133.85 37.3389 134.47 36.5632 134.869C35.7875 135.267 34.9109 135.427 34.0445 135.327C33.178 135.227 32.3607 134.873 31.6958 134.308C31.0309 133.744 30.5484 132.995 30.3094 132.156C30.0704 131.317 30.0855 130.427 30.353 129.596C30.6205 128.766 31.1282 128.034 31.8119 127.493C32.4956 126.951 33.3246 126.625 34.194 126.555C35.3573 126.462 36.51 126.834 37.3997 127.589C38.2894 128.345 38.8437 129.422 38.9412 130.585Z" stroke="#263238" stroke-linecap="round" stroke-linejoin="round"/>
<path d="M33.458 128.945C33.5834 128.727 33.7895 128.567 34.0317 128.5L34.003 128.137L34.6341 128.084L34.6628 128.448C34.9143 128.471 35.1463 128.593 35.3081 128.787C35.4778 129.018 35.5743 129.295 35.5854 129.581V129.734L34.8588 129.791V129.59C34.8621 129.46 34.8179 129.332 34.7345 129.232C34.6522 129.163 34.5461 129.128 34.4388 129.136C34.3316 129.144 34.2318 129.194 34.1608 129.275C34.0922 129.388 34.0668 129.522 34.0891 129.653C34.099 129.786 34.1399 129.915 34.2086 130.03C34.2737 130.137 34.3543 130.234 34.4476 130.317C34.5689 130.422 34.6966 130.52 34.8301 130.609C34.997 130.718 35.1567 130.838 35.3081 130.967C35.4371 131.087 35.5453 131.228 35.6284 131.383C35.7272 131.571 35.7843 131.778 35.7958 131.99C35.8325 132.275 35.7807 132.563 35.6476 132.817C35.5834 132.926 35.4984 133.02 35.3975 133.096C35.2966 133.171 35.1817 133.226 35.0596 133.257L35.0882 133.616L34.4572 133.668L34.4285 133.31C34.3019 133.299 34.1788 133.263 34.0664 133.204C33.9539 133.144 33.8544 133.064 33.7736 132.966C33.6056 132.734 33.5107 132.458 33.5011 132.172L33.4724 131.837L34.2038 131.775L34.2325 132.162C34.2325 132.483 34.4046 132.64 34.6675 132.607C34.9305 132.574 35.0548 132.416 35.0309 132.1C35.021 131.965 34.9801 131.834 34.9113 131.718C34.8462 131.611 34.7657 131.514 34.6723 131.431C34.5815 131.354 34.4572 131.259 34.2899 131.144C34.1217 131.035 33.9619 130.914 33.8118 130.781C33.6813 130.661 33.5715 130.52 33.4867 130.365C33.3896 130.178 33.3326 129.973 33.3194 129.762C33.2792 129.482 33.3277 129.196 33.458 128.945Z" fill="#263238"/>
<path d="M71.813 121.124C71.3592 122.104 70.625 122.927 69.7033 123.49C68.7815 124.052 67.7136 124.329 66.6347 124.285C65.5557 124.24 64.5141 123.877 63.6417 123.24C62.7692 122.604 62.1051 121.723 61.7333 120.709C61.3614 119.696 61.2986 118.594 61.5528 117.545C61.8069 116.495 62.3666 115.545 63.161 114.813C63.9555 114.082 64.949 113.602 66.0159 113.436C67.0828 113.269 68.1752 113.422 69.1549 113.876C70.4683 114.485 71.4861 115.591 71.9846 116.95C72.483 118.309 72.4213 119.81 71.813 121.124Z" fill="#514DF1"/>
<path d="M71.813 121.124C71.3592 122.104 70.625 122.927 69.7033 123.49C68.7815 124.052 67.7136 124.329 66.6347 124.285C65.5557 124.24 64.5141 123.877 63.6417 123.24C62.7692 122.604 62.1051 121.723 61.7333 120.709C61.3614 119.696 61.2986 118.594 61.5528 117.545C61.8069 116.495 62.3666 115.545 63.161 114.813C63.9555 114.082 64.949 113.602 66.0159 113.436C67.0828 113.269 68.1752 113.422 69.1549 113.876C70.4683 114.485 71.4861 115.591 71.9846 116.95C72.483 118.309 72.4213 119.81 71.813 121.124Z" stroke="#263238" stroke-linecap="round" stroke-linejoin="round"/>
<path d="M70.8617 120.684C70.4947 121.474 69.9015 122.138 69.1573 122.592C68.413 123.045 67.551 123.268 66.6802 123.232C65.8094 123.195 64.9689 122.902 64.265 122.388C63.561 121.874 63.0252 121.163 62.7253 120.345C62.4254 119.526 62.3747 118.637 62.5799 117.79C62.785 116.943 63.2366 116.176 63.8777 115.586C64.5187 114.995 65.3204 114.608 66.1815 114.473C67.0425 114.338 67.9242 114.462 68.7152 114.828C69.2413 115.07 69.7143 115.415 70.1072 115.841C70.5 116.267 70.8048 116.766 71.0042 117.31C71.2036 117.854 71.2937 118.432 71.2692 119.011C71.2448 119.59 71.1063 120.159 70.8617 120.684Z" stroke="#263238" stroke-linecap="round" stroke-linejoin="round"/>
<path d="M66.8937 116.544C67.1097 116.416 67.3672 116.378 67.6108 116.439L67.7638 116.109L68.3375 116.377L68.1845 116.706C68.3924 116.85 68.5351 117.07 68.5813 117.318C68.6156 117.603 68.564 117.891 68.4331 118.145L68.3662 118.284L67.7064 117.978L67.7877 117.792C67.8542 117.678 67.878 117.544 67.8546 117.414C67.8394 117.363 67.8125 117.316 67.776 117.277C67.7395 117.238 67.6944 117.208 67.6443 117.189C67.5958 117.166 67.5427 117.154 67.4889 117.154C67.4351 117.154 67.382 117.166 67.3335 117.189C67.2212 117.256 67.1352 117.359 67.0897 117.481C67.03 117.603 67.0005 117.737 67.0037 117.873C67.0084 117.997 67.0309 118.119 67.0706 118.236C67.1136 118.351 67.1758 118.499 67.2618 118.676C67.3517 118.852 67.43 119.035 67.4961 119.221C67.5499 119.391 67.5758 119.569 67.5726 119.747C67.5662 119.957 67.5157 120.164 67.4244 120.354C67.3137 120.62 67.1255 120.847 66.8842 121.004C66.7753 121.067 66.6551 121.108 66.5304 121.124C66.4057 121.141 66.279 121.133 66.1575 121.1L66.0045 121.425L65.4308 121.157L65.5647 120.818C65.4603 120.747 65.3711 120.656 65.3022 120.55C65.2333 120.444 65.186 120.325 65.1631 120.201C65.1279 119.915 65.1795 119.625 65.3113 119.369L65.4547 119.063L66.1193 119.374L65.9567 119.723C65.8229 120.01 65.8754 120.201 66.1193 120.325C66.3631 120.45 66.5495 120.325 66.6834 120.058C66.7398 119.937 66.7677 119.804 66.7646 119.67C66.7623 119.545 66.7397 119.421 66.6977 119.302C66.6432 119.152 66.5794 119.005 66.5065 118.863C66.4149 118.687 66.3366 118.505 66.2722 118.318C66.2178 118.149 66.1935 117.973 66.2005 117.796C66.2034 117.585 66.2541 117.378 66.3487 117.189C66.4615 116.924 66.6514 116.699 66.8937 116.544Z" fill="#263238"/>
<path d="M63.7289 123.61C63.7289 123.949 68.8203 120.263 73.7683 122.611C73.7683 122.611 68.5956 127.31 63.5903 124.389C58.5849 121.468 59.2877 114.302 59.2877 114.302C59.2877 114.302 64.1305 117.682 63.7289 123.61Z" fill="#6268FB" stroke="#263238" stroke-linecap="round" stroke-linejoin="round"/>
<path d="M52.0735 104.979C52.236 105.276 54.5308 99.4004 59.9807 98.6833C59.9807 98.6833 58.1832 105.438 52.3938 105.697C46.6044 105.955 43.3105 99.5534 43.3105 99.5534C43.3105 99.5534 49.1908 99.7829 52.0735 104.979Z" fill="#6268FB" stroke="#263238" stroke-linecap="round" stroke-linejoin="round"/>
<path d="M35.5089 111.142C35.7193 111.409 37.0579 105.242 42.3214 103.674C42.3214 103.674 41.6138 110.63 35.944 111.801C30.2741 112.973 26.0098 107.169 26.0098 107.169C26.0098 107.169 31.8422 106.476 35.5089 111.142Z" fill="#6268FB" stroke="#263238" stroke-linecap="round" stroke-linejoin="round"/>
<path d="M36.6136 137.168C36.867 137.392 37.1299 131.087 42.0492 128.644C42.0492 128.644 42.5273 135.619 37.1538 137.727C31.7804 139.835 26.5742 134.859 26.5742 134.859C26.5742 134.859 32.2058 133.181 36.6136 137.168Z" fill="#6268FB" stroke="#263238" stroke-linecap="round" stroke-linejoin="round"/>
<path d="M106.917 154.072H84.4482C84.4482 154.072 87.4792 176.905 88.354 183.512C88.5118 184.712 89.4679 185.304 90.6249 185.304H121.776C122.933 185.304 123.889 184.712 124.046 183.512C124.926 176.905 127.952 154.072 127.952 154.072H106.917Z" fill="#263238"/>
<path d="M83.6168 152.16H128.784C129.068 152.16 129.341 152.273 129.542 152.474C129.742 152.674 129.855 152.947 129.855 153.231V154.918C129.855 155.201 129.743 155.472 129.543 155.672C129.343 155.872 129.072 155.984 128.789 155.984H83.6168C83.3327 155.984 83.0604 155.872 82.8595 155.671C82.6587 155.47 82.5459 155.198 82.5459 154.914V153.226C82.5459 153.086 82.5736 152.947 82.6275 152.817C82.6814 152.687 82.7603 152.57 82.8598 152.47C82.9593 152.371 83.0774 152.293 83.2073 152.24C83.3372 152.186 83.4764 152.159 83.6168 152.16Z" fill="#263238"/>
<path d="M86.8428 155.984H109.632" stroke="#514DF1" stroke-linecap="round" stroke-linejoin="round"/>
<path d="M112.501 155.984H114.255" stroke="#514DF1" stroke-linecap="round" stroke-linejoin="round"/>
<path d="M124.774 155.984H121.585" stroke="#514DF1" stroke-linecap="round" stroke-linejoin="round"/>
<path d="M88.5977 163.471H97.5232" stroke="#514DF1" stroke-linecap="round" stroke-linejoin="round"/>
<path d="M102.62 163.471H105.01" stroke="#514DF1" stroke-linecap="round" stroke-linejoin="round"/>
<path d="M124.133 163.471H115.527" stroke="#514DF1" stroke-linecap="round" stroke-linejoin="round"/>
<path d="M123.177 169.686H121.585" stroke="#514DF1" stroke-linecap="round" stroke-linejoin="round"/>
<path d="M97.5232 169.686H94.1768" stroke="#514DF1" stroke-linecap="round" stroke-linejoin="round"/>
<path d="M113.376 175.743H118.874" stroke="#514DF1" stroke-linecap="round" stroke-linejoin="round"/>
<path d="M100.55 175.743H91.9443" stroke="#514DF1" stroke-linecap="round" stroke-linejoin="round"/>
<path d="M90.1904 181.159H93.0588" stroke="#514DF1" stroke-linecap="round" stroke-linejoin="round"/>
<path d="M97.5234 181.159H114.256" stroke="#514DF1" stroke-linecap="round" stroke-linejoin="round"/>
<path d="M122.383 181.159H119.83" stroke="#514DF1" stroke-linecap="round" stroke-linejoin="round"/>
<path d="M114.409 168.729C114.41 170.353 113.929 171.941 113.028 173.291C112.127 174.642 110.845 175.694 109.345 176.316C107.845 176.938 106.195 177.102 104.602 176.786C103.01 176.469 101.547 175.688 100.398 174.54C99.2496 173.392 98.4674 171.93 98.1503 170.337C97.8332 168.745 97.9954 167.094 98.6166 165.594C99.2377 164.094 100.29 162.812 101.64 161.91C102.99 161.007 104.577 160.526 106.201 160.526C108.377 160.526 110.464 161.39 112.003 162.928C113.542 164.467 114.408 166.553 114.409 168.729Z" fill="#6268FB" stroke="#263238" stroke-linecap="round" stroke-linejoin="round"/>
<path d="M113.013 168.73C113.015 170.078 112.618 171.396 111.871 172.518C111.125 173.641 110.062 174.516 108.817 175.034C107.573 175.552 106.202 175.689 104.88 175.427C103.557 175.166 102.342 174.518 101.388 173.566C100.434 172.614 99.7837 171.4 99.5197 170.078C99.2556 168.757 99.3897 167.386 99.9049 166.14C100.42 164.895 101.293 163.83 102.414 163.081C103.534 162.332 104.852 161.932 106.2 161.932C108.004 161.933 109.734 162.649 111.011 163.923C112.288 165.197 113.008 166.926 113.013 168.73Z" stroke="#263238" stroke-linecap="round" stroke-linejoin="round"/>
<path d="M106.2 164.881L104.193 166.87V165.517H103.557V167.501L102.467 168.581H103.423V171.866H108.978V168.581H109.934L106.2 164.881Z" fill="#514DF1" stroke="#263238" stroke-linecap="round" stroke-linejoin="round"/>
<path d="M106.626 156.434C106.626 156.434 109.494 150.936 102.619 146.155C95.7448 141.375 94.2533 136.422 95.3576 132.683" stroke="#263238" stroke-width="3" stroke-linecap="round" stroke-linejoin="round"/>
<path d="M105.487 148.809C105.487 148.809 104.684 145.228 110.971 142.704C117.257 140.18 118.194 132.664 118.194 132.664" stroke="#263238" stroke-width="3" stroke-linecap="round" stroke-linejoin="round"/>
<path d="M98.8567 126.679C99.8654 126.679 99.6885 133.009 95.0321 134.204C95.0321 134.204 92.7661 133.491 92.4075 130.441C92.27 129.617 92.3629 128.772 92.6759 127.997C92.9889 127.223 93.5098 126.55 94.1812 126.053C94.4714 127.048 94.8673 128.01 95.362 128.921C95.362 128.921 96.9444 126.689 98.8567 126.679Z" fill="#6268FB" stroke="#263238" stroke-linecap="round" stroke-linejoin="round"/>
<path d="M95.3578 128.916C95.3578 128.916 94.0718 129.987 95.0041 131.933L95.3578 128.916Z" fill="#6268FB"/>
<path d="M95.3578 128.916C95.3578 128.916 94.0718 129.987 95.0041 131.933" stroke="#263238" stroke-linecap="round" stroke-linejoin="round"/>
<path d="M117.87 134.204C117.87 134.204 114.524 131.158 115.528 128.916C116.208 127.512 117.318 126.361 118.697 125.632C118.697 125.632 119.414 127.023 119.83 127.688L121.547 126.679C121.547 126.679 125.056 133.486 117.87 134.204Z" fill="#6268FB" stroke="#263238" stroke-linecap="round" stroke-linejoin="round"/>
<path d="M119.829 127.688C119.829 127.688 121.923 131.034 119.294 132.684L119.829 127.688Z" fill="#6268FB"/>
<path d="M119.829 127.688C119.829 127.688 121.923 131.034 119.294 132.684" stroke="#263238" stroke-linecap="round" stroke-linejoin="round"/>
<path d="M107.712 144.525C107.712 144.525 104.475 136.398 107.157 127.286" stroke="#263238" stroke-width="3" stroke-linecap="round" stroke-linejoin="round"/>
<path d="M107.309 127.339C107.309 127.339 111.612 125.957 111.612 123.514C111.578 121.955 111.047 120.448 110.096 119.212C110.096 119.212 108.863 120.168 108.208 120.612L107.065 118.982C107.065 118.982 101.07 123.686 107.309 127.339Z" fill="#6268FB" stroke="#263238" stroke-linecap="round" stroke-linejoin="round"/>
<path d="M108.228 120.598C108.228 120.598 104.934 122.783 106.645 125.379L108.228 120.598Z" fill="#6268FB"/>
<path d="M108.228 120.598C108.228 120.598 104.934 122.783 106.645 125.379" stroke="#263238" stroke-linecap="round" stroke-linejoin="round"/>
<path d="M164.286 154.072H141.816C141.816 154.072 144.843 176.905 145.722 183.512C145.88 184.712 146.836 185.304 147.993 185.304H179.144C180.301 185.304 181.257 184.712 181.415 183.512C182.294 176.905 185.32 154.072 185.32 154.072H164.286Z" fill="#263238"/>
<path d="M140.984 152.16H186.152C186.434 152.16 186.706 152.272 186.905 152.472C187.105 152.672 187.218 152.943 187.218 153.226V154.914C187.218 155.196 187.105 155.467 186.905 155.667C186.706 155.867 186.434 155.98 186.152 155.98H140.984C140.7 155.98 140.428 155.867 140.227 155.666C140.026 155.465 139.913 155.193 139.913 154.909V153.221C139.914 153.081 139.942 152.943 139.996 152.814C140.05 152.685 140.129 152.567 140.229 152.469C140.328 152.37 140.446 152.292 140.576 152.239C140.705 152.186 140.844 152.159 140.984 152.16Z" fill="#263238"/>
<path d="M144.211 155.984H167" stroke="#514DF1" stroke-linecap="round" stroke-linejoin="round"/>
<path d="M169.869 155.984H171.624" stroke="#514DF1" stroke-linecap="round" stroke-linejoin="round"/>
<path d="M182.142 155.984H178.953" stroke="#514DF1" stroke-linecap="round" stroke-linejoin="round"/>
<path d="M145.966 163.471H154.891" stroke="#514DF1" stroke-linecap="round" stroke-linejoin="round"/>
<path d="M159.987 163.471H162.378" stroke="#514DF1" stroke-linecap="round" stroke-linejoin="round"/>
<path d="M181.501 163.471H172.896" stroke="#514DF1" stroke-linecap="round" stroke-linejoin="round"/>
<path d="M180.545 169.686H178.953" stroke="#514DF1" stroke-linecap="round" stroke-linejoin="round"/>
<path d="M154.891 169.686H151.545" stroke="#514DF1" stroke-linecap="round" stroke-linejoin="round"/>
<path d="M170.744 175.743H176.242" stroke="#514DF1" stroke-linecap="round" stroke-linejoin="round"/>
<path d="M157.918 175.743H149.312" stroke="#514DF1" stroke-linecap="round" stroke-linejoin="round"/>
<path d="M147.559 181.159H150.427" stroke="#514DF1" stroke-linecap="round" stroke-linejoin="round"/>
<path d="M154.892 181.159H171.624" stroke="#514DF1" stroke-linecap="round" stroke-linejoin="round"/>
<path d="M179.751 181.159H177.198" stroke="#514DF1" stroke-linecap="round" stroke-linejoin="round"/>
<path d="M171.777 168.729C171.778 170.353 171.297 171.941 170.396 173.291C169.495 174.642 168.213 175.694 166.713 176.316C165.213 176.938 163.563 177.102 161.97 176.786C160.378 176.469 158.915 175.688 157.766 174.54C156.618 173.392 155.836 171.93 155.518 170.337C155.201 168.745 155.364 167.094 155.985 165.594C156.606 164.094 157.658 162.812 159.008 161.91C160.358 161.007 161.945 160.526 163.569 160.526C165.745 160.526 167.832 161.39 169.371 162.928C170.91 164.467 171.776 166.553 171.777 168.729Z" fill="#6268FB" stroke="#263238" stroke-linecap="round" stroke-linejoin="round"/>
<path d="M166.704 167.831V170.699C166.704 170.699 166.102 171.703 163.568 171.703C161.034 171.703 160.432 170.699 160.432 170.699V167.831" fill="#514DF1"/>
<path d="M166.704 167.831V170.699C166.704 170.699 166.102 171.703 163.568 171.703C161.034 171.703 160.432 170.699 160.432 170.699V167.831" stroke="#263238" stroke-linecap="round" stroke-linejoin="round"/>
<path d="M163.568 165.761L167.919 167.377L163.568 168.992L159.218 167.377L163.568 165.761Z" fill="#514DF1" stroke="#263238" stroke-linecap="round" stroke-linejoin="round"/>
<path d="M163.568 167.377L165.39 168.318V172.655" stroke="#263238" stroke-linecap="round" stroke-linejoin="round"/>
<path d="M170.381 168.73C170.384 170.078 169.986 171.396 169.24 172.518C168.493 173.641 167.43 174.516 166.185 175.034C164.941 175.552 163.57 175.689 162.248 175.427C160.926 175.166 159.71 174.518 158.756 173.566C157.802 172.614 157.152 171.4 156.888 170.078C156.624 168.757 156.758 167.386 157.273 166.14C157.788 164.895 158.661 163.83 159.782 163.081C160.903 162.332 162.22 161.932 163.568 161.932C165.372 161.933 167.102 162.649 168.379 163.923C169.656 165.197 170.376 166.926 170.381 168.73Z" stroke="#263238" stroke-linecap="round" stroke-linejoin="round"/>
<path d="M163.568 158.265C163.568 158.265 161.393 152.691 163.568 145.52" stroke="#263238" stroke-width="3" stroke-linecap="round" stroke-linejoin="round"/>
<path d="M163.568 139.462C163.568 139.462 170.381 144.085 162.612 148.703C162.612 148.703 154.891 144.085 163.568 139.462Z" fill="#6268FB" stroke="#263238" stroke-linecap="round" stroke-linejoin="round"/>
<path d="M163.568 139.462C163.568 139.462 164.739 141.217 163.568 142.809C163.222 143.336 162.983 143.926 162.866 144.545C162.748 145.165 162.755 145.801 162.884 146.418" stroke="#263238" stroke-linecap="round" stroke-linejoin="round"/>
</svg>
