<svg width="213" height="202" viewBox="0 0 213 202" fill="none" xmlns="http://www.w3.org/2000/svg">
<path d="M166.74 58.098C166.343 57.9121 165.927 57.7703 165.5 57.6753C162.996 57.076 160.069 56.6068 160.069 56.6068C160.069 56.6068 164.459 52.1705 162.787 50.2381C161.115 48.3056 158.197 51.2786 158.197 51.2786C158.197 51.2786 161.119 43.2468 156.948 42.0576C152.776 40.8684 148.187 49.7921 148.187 49.7921C148.187 49.7921 147.978 46.3685 145.892 46.8144C143.806 47.2604 143.388 51.2786 143.388 51.2786C143.388 51.2786 140.257 49.4948 139.426 51.13C138.594 52.7651 140.466 56.0354 140.466 56.0354C140.466 56.0354 136.922 53.9543 136.504 55.8868C136.346 56.6125 136.289 57.3567 136.336 58.098H166.74Z" stroke="#263238" stroke-width="0.950778" stroke-linecap="round" stroke-linejoin="round"/>
<path d="M195.643 58.0981L187.514 57.0157C185.393 55.3725 182.829 54.4017 180.151 54.2285L179.222 54.1681C179.222 54.1681 181.429 51.5203 180.105 45.7786C178.781 40.037 171.278 44.896 171.278 44.896C171.278 44.896 176.783 39.6653 175.901 34.8063C175.018 29.9473 167.307 33.8772 167.307 33.8772C167.307 33.8772 168.208 20.7774 158.481 21.2187C148.753 21.66 146.979 36.9664 146.979 36.9664C146.979 36.9664 140.136 28.6466 135.495 39.1776C134.809 40.7382 134.301 42.3713 133.981 44.0459L133.786 43.8508C133.786 43.8508 130.149 39.4191 127.282 42.5873C124.416 45.7554 124.751 50.4843 124.751 50.4843C124.751 50.4843 120.319 48.9049 119.213 50.8049C118.108 52.7048 120.635 54.916 120.635 54.916C120.635 54.916 118.261 53.8104 116.519 55.3805C115.427 56.37 114.28 57.4198 113.569 58.0702L195.643 58.0981Z" stroke="#263238" stroke-width="0.950778" stroke-linecap="round" stroke-linejoin="round"/>
<path d="M64.2733 103.149C63.876 102.963 63.4603 102.82 63.033 102.721C60.5292 102.127 57.6026 101.658 57.6026 101.658C57.6026 101.658 61.9925 97.2213 60.3201 95.2888C58.6478 93.3564 55.7305 96.3294 55.7305 96.3294C55.7305 96.3294 58.6525 88.2976 54.4809 87.1084C50.3094 85.9192 45.7198 94.8429 45.7198 94.8429C45.7198 94.8429 45.5108 91.4193 43.425 91.8652C41.3393 92.3112 40.9212 96.3294 40.9212 96.3294C40.9212 96.3294 37.7902 94.5456 36.9587 96.1807C36.1272 97.8159 37.9993 101.086 37.9993 101.086C37.9993 101.086 34.4549 99.0051 34.0368 100.938C33.8789 101.663 33.8226 102.408 33.8695 103.149H64.2733Z" stroke="#263238" stroke-width="0.950778" stroke-linecap="round" stroke-linejoin="round"/>
<path d="M93.1765 103.149L85.061 102.066C82.9373 100.431 80.3732 99.4688 77.6982 99.3022L76.7691 99.2418C76.7691 99.2418 78.9756 96.594 77.6517 90.8524C76.3278 85.1107 68.8255 89.9697 68.8255 89.9697C68.8255 89.9697 74.3303 84.7391 73.4477 79.88C72.5651 75.021 64.8538 78.9278 64.8538 78.9278C64.8538 78.9278 65.755 65.8232 56.0276 66.2692C46.3003 66.7151 44.5257 82.0169 44.5257 82.0169C44.5257 82.0169 37.6924 73.6971 33.0517 84.2095C32.3653 85.7701 31.8573 87.4032 31.5374 89.0778L31.3423 88.8827C31.3423 88.8827 27.7049 84.4511 24.8388 87.6192C21.9726 90.7873 22.3071 95.5163 22.3071 95.5163C22.3071 95.5163 17.8754 93.9369 16.7652 95.8322C15.6549 97.7275 18.2052 100.004 18.2052 100.004C18.2052 100.004 15.8314 98.8981 14.0894 100.468C12.9978 101.458 11.8504 102.508 11.1396 103.158L93.1765 103.149Z" stroke="#263238" stroke-width="0.950778" stroke-linecap="round" stroke-linejoin="round"/>
<path d="M193.158 154.285C189.42 154.285 185.802 155.601 182.938 158.001C180.965 155.824 178.22 154.502 175.287 154.316C172.354 154.13 169.464 155.096 167.232 157.007C165.733 155.734 163.971 154.807 162.072 154.295C160.174 153.782 158.185 153.696 156.249 154.042C154.313 154.389 152.477 155.159 150.874 156.298C149.27 157.437 147.938 158.916 146.974 160.63C146.157 160.192 145.24 159.972 144.312 159.994C143.385 160.016 142.479 160.278 141.683 160.754C140.888 161.231 140.229 161.905 139.772 162.713C139.315 163.52 139.076 164.432 139.077 165.359C139.077 165.569 139.09 165.778 139.114 165.987C138.781 165.949 138.446 165.931 138.11 165.931C136.044 165.928 134.044 166.663 132.471 168.003C131.135 166.856 129.433 166.227 127.672 166.228C127.441 166.229 127.21 166.241 126.98 166.265V93.6121C127.336 92.9408 127.775 92.3166 128.286 91.7539C128.94 91.1718 129.402 90.4045 129.611 89.5536C129.819 88.7028 129.764 87.8087 129.453 86.9899C129.141 86.1711 128.588 85.4663 127.867 84.969C127.146 84.4717 126.291 84.2054 125.415 84.2054C124.539 84.2054 123.683 84.4717 122.962 84.969C122.241 85.4663 121.688 86.1711 121.377 86.9899C121.065 87.8087 121.01 88.7028 121.219 89.5536C121.427 90.4045 121.889 91.1718 122.544 91.7539C123.03 92.2893 123.451 92.8803 123.798 93.5145V167.329C123.214 167.693 122.681 168.133 122.214 168.639C120.542 167.247 118.476 166.411 116.306 166.248C114.136 166.086 111.969 166.605 110.108 167.733C109.599 167.426 109.064 167.164 108.51 166.948V99.7904C109.216 97.0032 111.437 94.6805 111.437 94.6805C112.471 93.76 113.201 92.547 113.529 91.2023C113.858 89.8576 113.77 88.4448 113.278 87.151C112.786 85.8573 111.911 84.7438 110.772 83.9581C109.632 83.1724 108.28 82.7517 106.896 82.7517C105.512 82.7517 104.16 83.1724 103.02 83.9581C101.881 84.7438 101.007 85.8573 100.514 87.151C100.022 88.4448 99.934 89.8576 100.263 91.2023C100.592 92.547 101.321 93.76 102.355 94.6805V94.7037C102.355 94.7037 104.678 97.1472 105.338 100.055V166.237C105.133 166.237 104.924 166.237 104.71 166.237C102.267 166.234 99.9006 167.091 98.0258 168.658C96.9871 167.511 95.6135 166.72 94.1 166.398C92.5865 166.076 91.01 166.24 89.5945 166.865V93.6121C89.9506 92.9408 90.3891 92.3166 90.8998 91.7539C91.5544 91.1718 92.0166 90.4045 92.2251 89.5536C92.4335 88.7028 92.3784 87.8087 92.067 86.9899C91.7556 86.1711 91.2027 85.4663 90.4815 84.969C89.7603 84.4717 88.905 84.2054 88.029 84.2054C87.153 84.2054 86.2977 84.4717 85.5765 84.969C84.8554 85.4663 84.3024 86.1711 83.991 86.9899C83.6796 87.8087 83.6245 88.7028 83.8329 89.5536C84.0414 90.4045 84.5036 91.1718 85.1582 91.7539C85.6442 92.2893 86.0652 92.8803 86.4124 93.5145V167.05C84.8277 166.152 83.0007 165.775 81.1899 165.973C79.3792 166.171 77.6765 166.933 76.3227 168.151C76.3565 167.98 76.3736 167.806 76.3738 167.631C76.3738 166.935 76.0973 166.267 75.6051 165.775C75.1129 165.283 74.4453 165.006 73.7492 165.006C73.5472 165.008 73.3461 165.033 73.15 165.081C73.076 164.326 72.8182 163.601 72.3993 162.968C71.9804 162.336 71.413 161.816 70.7467 161.453C70.0804 161.091 69.3355 160.897 68.577 160.889C67.8185 160.881 67.0696 161.058 66.3956 161.406C65.5136 159.564 64.2206 157.949 62.6162 156.686C61.0118 155.422 59.1388 154.544 57.1415 154.118C55.1441 153.692 53.0756 153.73 51.0954 154.229C49.1151 154.729 47.2758 155.676 45.7192 156.998C43.4869 155.087 40.5973 154.121 37.6644 154.307C34.7316 154.492 31.9867 155.814 30.0133 157.992C27.5506 155.923 24.52 154.648 21.3193 154.332C18.1186 154.017 14.8974 154.677 12.0784 156.225C9.2595 157.774 6.9746 160.138 5.52366 163.009C4.07273 165.879 3.52356 169.121 3.94825 172.309H208.998C209.086 171.628 209.131 170.942 209.133 170.256C209.132 166.02 207.448 161.957 204.452 158.962C201.457 155.967 197.394 154.285 193.158 154.285Z" fill="#C2C2C2"/>
<path d="M89.7991 87.6753C89.7991 86.6812 88.9955 85.1018 87.9967 85.1018C86.998 85.1018 86.1943 86.6812 86.1943 87.6753C86.1943 88.6694 87.7273 90.6576 87.9967 90.6576C88.2662 90.6576 89.7991 88.6694 89.7991 87.6753Z" fill="#6268FB"/>
<path d="M127.222 87.6753C127.222 86.6812 126.418 85.1018 125.42 85.1018C124.421 85.1018 123.617 86.6812 123.617 87.6753C123.617 88.6694 125.15 90.6576 125.42 90.6576C125.689 90.6576 127.222 88.6694 127.222 87.6753Z" fill="#6268FB"/>
<path d="M88.2061 75.8156L100.916 64.6296V74.1201L89.0515 79.6945L88.2061 75.8156Z" fill="#263238" stroke="#263238" stroke-width="0.950778" stroke-miterlimit="10"/>
<path d="M90.7649 85.0228H85.2463L84.0803 63.3615C84.0644 63.2071 84.0644 63.0514 84.0803 62.897C84.2707 61.1085 85.9384 55.2461 88.001 55.2461C90.0496 55.2461 91.7172 61.1085 91.9263 62.897C91.9399 63.0515 91.9399 63.207 91.9263 63.3615L90.7649 85.0228Z" fill="white" stroke="#263238" stroke-width="0.950778" stroke-miterlimit="10"/>
<path d="M84.8516 59.7567H91.1692C90.4539 57.5827 89.3111 55.2415 88.0104 55.2415C86.7097 55.2415 85.5669 57.5827 84.8516 59.7567Z" fill="#263238" stroke="#263238" stroke-width="0.950778" stroke-miterlimit="10"/>
<path d="M85 80.4517L85.2462 85.0227H90.7649L91.0111 80.4517H85Z" fill="#263238" stroke="#263238" stroke-width="0.950778" stroke-miterlimit="10"/>
<path d="M125.447 75.8156L112.724 64.6296V74.1201L124.588 79.6945L125.447 75.8156Z" fill="#263238" stroke="#263238" stroke-width="0.950778" stroke-miterlimit="10"/>
<path d="M122.888 85.0228H128.407L129.573 63.3615C129.589 63.2071 129.589 63.0514 129.573 62.897C129.383 61.1085 127.715 55.2461 125.652 55.2461C123.604 55.2461 121.936 61.1085 121.727 62.897C121.713 63.0515 121.713 63.207 121.727 63.3615L122.888 85.0228Z" fill="white" stroke="#263238" stroke-width="0.950778" stroke-miterlimit="10"/>
<path d="M128.653 80.4517L128.406 85.0227H122.888L122.642 80.4517H128.653Z" fill="#263238" stroke="#263238" stroke-width="0.950778" stroke-miterlimit="10"/>
<path d="M122.479 59.7567H128.796C128.076 57.5827 126.938 55.2415 125.637 55.2415C124.337 55.2415 123.203 57.5827 122.479 59.7567Z" fill="#263238" stroke="#263238" stroke-width="0.950778" stroke-miterlimit="10"/>
<path d="M109.742 88.2188C109.712 87.4829 109.399 86.787 108.868 86.2768C108.336 85.7666 107.628 85.4817 106.892 85.4817C106.155 85.4817 105.447 85.7666 104.916 86.2768C104.385 86.787 104.072 87.4829 104.042 88.2188C104.042 89.7936 106.462 92.9339 106.89 92.9339C107.224 92.9339 109.742 89.7843 109.742 88.2188Z" fill="#6268FB"/>
<path d="M114.118 77.395H99.6849L96.6283 30.5142C96.5888 30.1048 96.5888 29.6926 96.6283 29.2832C97.1392 24.5914 101.548 9.23853 106.904 9.23853C112.264 9.23853 116.659 24.5914 117.179 29.2832C117.221 29.6925 117.221 30.1049 117.179 30.5142L114.118 77.395Z" fill="white" stroke="#263238" stroke-width="0.950778" stroke-miterlimit="10"/>
<path d="M106.931 65.8235C105.256 65.8235 103.65 65.1586 102.465 63.9748C101.281 62.791 100.615 61.1852 100.613 59.5105V33.1946C100.615 31.5199 101.281 29.9141 102.465 28.7304C103.65 27.5466 105.256 26.8816 106.931 26.8816C108.605 26.8828 110.21 27.5483 111.394 28.732C112.577 29.9156 113.243 31.5207 113.244 33.1946V59.5105C113.243 61.1844 112.577 62.7895 111.394 63.9731C110.21 65.1568 108.605 65.8223 106.931 65.8235Z" fill="#6268FB" stroke="#263238" stroke-width="0.950778" stroke-miterlimit="10"/>
<path d="M111.976 84.1263H101.821L99.6846 77.0933H114.136L111.976 84.1263Z" fill="#263238" stroke="#263238" stroke-width="0.950778" stroke-miterlimit="10"/>
<path d="M108.539 38.2373C110.803 37.3358 111.908 34.7692 111.006 32.5049C110.105 30.2405 107.538 29.1357 105.274 30.0372C103.009 30.9388 101.905 33.5053 102.806 35.7697C103.708 38.0341 106.274 39.1389 108.539 38.2373Z" fill="#263238"/>
<path d="M111.268 35.3675C111.652 32.9606 110.012 30.6984 107.605 30.3146C105.198 29.9308 102.936 31.5708 102.552 33.9777C102.169 36.3845 103.809 38.6468 106.215 39.0306C108.622 39.4144 110.885 37.7744 111.268 35.3675Z" fill="#6268FB" stroke="#263238" stroke-width="0.950778" stroke-miterlimit="10"/>
<path d="M106.908 30.8581C107.977 30.8585 109.005 31.2727 109.776 32.014C110.547 32.7552 111 33.766 111.042 34.8345C111.042 34.7788 111.042 34.723 111.042 34.6673C111.006 33.5929 110.554 32.5746 109.782 31.8274C109.009 31.0801 107.976 30.6624 106.901 30.6624C105.826 30.6624 104.793 31.0801 104.021 31.8274C103.248 32.5746 102.796 33.5929 102.76 34.6673C102.76 34.723 102.76 34.7788 102.76 34.8345C102.801 33.7632 103.256 32.7497 104.03 32.0078C104.804 31.2659 105.836 30.8537 106.908 30.8581Z" fill="#263238"/>
<path d="M110.158 35.2012C110.45 33.4058 109.232 31.7136 107.436 31.4215C105.641 31.1294 103.949 32.3481 103.657 34.1435C103.365 35.9388 104.583 37.6311 106.379 37.9231C108.174 38.2152 109.866 36.9965 110.158 35.2012Z" fill="white" stroke="#263238" stroke-width="0.950778" stroke-miterlimit="10"/>
<path d="M106.908 37.6542C107.754 37.6539 108.568 37.3275 109.181 36.7427C109.793 36.158 110.157 35.3598 110.196 34.5139C110.196 34.565 110.196 34.6161 110.196 34.6672C110.196 35.5407 109.849 36.3784 109.232 36.9961C108.614 37.6138 107.776 37.9608 106.903 37.9608C106.029 37.9608 105.192 37.6138 104.574 36.9961C103.956 36.3784 103.609 35.5407 103.609 34.6672C103.609 34.6161 103.609 34.565 103.609 34.5139C103.649 35.3614 104.014 36.1609 104.628 36.7459C105.243 37.3309 106.059 37.6563 106.908 37.6542Z" fill="#263238"/>
<path d="M106.908 49.4487C109.345 49.4487 111.321 47.4729 111.321 45.0356C111.321 42.5984 109.345 40.6226 106.908 40.6226C104.471 40.6226 102.495 42.5984 102.495 45.0356C102.495 47.4729 104.471 49.4487 106.908 49.4487Z" fill="#263238"/>
<path d="M106.908 49.9783C109.345 49.9783 111.321 48.0025 111.321 45.5652C111.321 43.1279 109.345 41.1521 106.908 41.1521C104.471 41.1521 102.495 43.1279 102.495 45.5652C102.495 48.0025 104.471 49.9783 106.908 49.9783Z" fill="#6268FB" stroke="#263238" stroke-width="0.950778" stroke-miterlimit="10"/>
<path d="M106.908 41.756C107.977 41.7564 109.005 42.1706 109.776 42.9119C110.547 43.6532 111 44.664 111.042 45.7325C111.042 45.6767 111.042 45.621 111.042 45.5652C111.006 44.4909 110.554 43.4726 109.782 42.7253C109.009 41.978 107.976 41.5603 106.901 41.5603C105.826 41.5603 104.793 41.978 104.021 42.7253C103.248 43.4726 102.796 44.4909 102.76 45.5652C102.76 45.621 102.76 45.6767 102.76 45.7325C102.801 44.6612 103.256 43.6476 104.03 42.9058C104.804 42.1639 105.836 41.7517 106.908 41.756Z" fill="#263238"/>
<path d="M106.908 48.8588C108.727 48.8588 110.201 47.3843 110.201 45.5653C110.201 43.7463 108.727 42.2717 106.908 42.2717C105.089 42.2717 103.614 43.7463 103.614 45.5653C103.614 47.3843 105.089 48.8588 106.908 48.8588Z" fill="white" stroke="#263238" stroke-width="0.950778" stroke-miterlimit="10"/>
<path d="M106.908 48.5521C107.754 48.5518 108.568 48.2254 109.181 47.6407C109.793 47.0559 110.157 46.2577 110.196 45.4119C110.196 45.463 110.196 45.5141 110.196 45.5652C110.196 46.4387 109.849 47.2764 109.232 47.8941C108.614 48.5117 107.776 48.8587 106.903 48.8587C106.029 48.8587 105.192 48.5117 104.574 47.8941C103.956 47.2764 103.609 46.4387 103.609 45.5652C103.609 45.5141 103.609 45.463 103.609 45.4119C103.649 46.2593 104.014 47.0589 104.628 47.6439C105.243 48.2289 106.059 48.5542 106.908 48.5521Z" fill="#263238"/>
<path d="M108.542 60.0342C110.806 59.1326 111.911 56.5661 111.009 54.3017C110.108 52.0373 107.541 50.9325 105.277 51.8341C103.012 52.7357 101.908 55.3022 102.809 57.5666C103.711 59.831 106.277 60.9358 108.542 60.0342Z" fill="#263238"/>
<path d="M111.27 57.1627C111.654 54.7558 110.014 52.4935 107.607 52.1097C105.2 51.7259 102.938 53.366 102.554 55.7728C102.171 58.1797 103.811 60.442 106.217 60.8258C108.624 61.2096 110.887 59.5696 111.27 57.1627Z" fill="#6268FB" stroke="#263238" stroke-width="0.950778" stroke-miterlimit="10"/>
<path d="M106.908 52.654C107.977 52.6544 109.005 53.0686 109.776 53.8099C110.547 54.5511 111 55.5619 111.042 56.6304C111.042 56.5747 111.042 56.5189 111.042 56.4632C111.006 55.3888 110.554 54.3705 109.782 53.6233C109.009 52.876 107.976 52.4583 106.901 52.4583C105.826 52.4583 104.793 52.876 104.021 53.6233C103.248 54.3705 102.796 55.3888 102.76 56.4632C102.76 56.5189 102.76 56.5747 102.76 56.6304C102.801 55.5591 103.256 54.5456 104.03 53.8037C104.804 53.0618 105.836 52.6496 106.908 52.654Z" fill="#263238"/>
<path d="M110.159 56.9944C110.451 55.199 109.233 53.5068 107.437 53.2147C105.642 52.9226 103.95 54.1413 103.658 55.9367C103.366 57.7321 104.584 59.4243 106.38 59.7163C108.175 60.0084 109.867 58.7898 110.159 56.9944Z" fill="white" stroke="#263238" stroke-width="0.950778" stroke-miterlimit="10"/>
<path d="M106.908 59.4501C107.754 59.4498 108.568 59.1234 109.181 58.5386C109.793 57.9539 110.157 57.1557 110.196 56.3098C110.196 56.3609 110.196 56.412 110.196 56.4631C110.196 57.3366 109.849 58.1743 109.232 58.792C108.614 59.4097 107.776 59.7567 106.903 59.7567C106.029 59.7567 105.192 59.4097 104.574 58.792C103.956 58.1743 103.609 57.3366 103.609 56.4631C103.609 56.412 103.609 56.3609 103.609 56.3098C103.649 57.1573 104.014 57.9568 104.628 58.5418C105.243 59.1268 106.059 59.4522 106.908 59.4501Z" fill="#263238"/>
<path d="M99.5967 18.4037H114.22C112.362 13.4936 109.784 8.93188 106.908 8.93188C104.038 8.95511 101.446 13.4936 99.5967 18.4037Z" fill="#263238" stroke="#263238" stroke-width="0.950778" stroke-miterlimit="10"/>
<path d="M165.1 100.761H58.8242V169.526H165.1V100.761Z" fill="#263238" stroke="#263238" stroke-width="0.950778" stroke-linecap="round" stroke-linejoin="round"/>
<path d="M165.1 148.218H58.8242V169.526H165.1V148.218Z" fill="#6B6B6B" stroke="#263238" stroke-width="0.950778" stroke-linecap="round" stroke-linejoin="round"/>
<path d="M97.9148 129.911H61.4023V157.885H97.9148V129.911Z" fill="#6268FB" stroke="#263238" stroke-width="0.950778" stroke-linecap="round" stroke-linejoin="round"/>
<path d="M96.4374 131.592H62.8701V156.199H96.4374V131.592Z" fill="white" stroke="#263238" stroke-width="0.950778" stroke-linecap="round" stroke-linejoin="round"/>
<path d="M72.1516 152.845L70.4932 154.313" stroke="#263238" stroke-width="0.950778" stroke-linecap="round" stroke-linejoin="round"/>
<path d="M95.206 132.419L74.5342 150.731" stroke="#263238" stroke-width="0.950778" stroke-linecap="round" stroke-linejoin="round"/>
<path d="M90.4962 139.313L78.6738 149.788" stroke="#263238" stroke-width="0.950778" stroke-linecap="round" stroke-linejoin="round"/>
<path d="M162.759 129.911H126.246V157.885H162.759V129.911Z" fill="#6268FB" stroke="#263238" stroke-width="0.950778" stroke-linecap="round" stroke-linejoin="round"/>
<path d="M161.286 131.592H127.719V156.199H161.286V131.592Z" fill="white" stroke="#263238" stroke-width="0.950778" stroke-linecap="round" stroke-linejoin="round"/>
<path d="M137 152.845L135.342 154.313" stroke="#263238" stroke-width="0.950778" stroke-linecap="round" stroke-linejoin="round"/>
<path d="M160.051 132.419L139.384 150.731" stroke="#263238" stroke-width="0.950778" stroke-linecap="round" stroke-linejoin="round"/>
<path d="M155.345 139.313L143.522 149.788" stroke="#263238" stroke-width="0.950778" stroke-linecap="round" stroke-linejoin="round"/>
<path d="M128.104 165.322L126.246 162.419L129.149 163.464L128.801 160.677L130.311 162.999L130.427 158.818L131.24 161.606L133.098 156.38L133.33 161.838L135.537 160.56L134.259 162.999L135.885 161.954L135.769 163.696L137.859 162.651L136.466 165.206L128.104 165.322Z" fill="#6268FB"/>
<path d="M140.299 165.322L138.44 162.419L141.344 163.464L140.995 160.677L142.505 162.999L142.621 158.818L143.434 161.606L145.292 156.38L145.525 161.838L147.731 160.56L146.454 162.999L148.08 161.954L147.963 163.696L150.054 162.651L148.66 165.206L140.299 165.322Z" fill="#6268FB"/>
<path d="M152.377 165.322L150.519 162.419L153.422 163.464L153.073 160.677L154.583 162.999L154.699 158.818L155.512 161.606L157.37 156.38L157.603 161.838L159.809 160.56L158.532 162.999L160.158 161.954L160.042 163.696L162.132 162.651L160.738 165.206L152.377 165.322Z" fill="#6268FB"/>
<path d="M62.489 165.322L60.6309 162.419L63.5342 163.464L63.1858 160.677L64.6955 162.999L64.8117 158.818L65.6246 161.606L67.4827 156.38L67.715 161.838L69.9215 160.56L68.6441 162.999L70.27 161.954L70.1538 163.696L72.2442 162.651L70.8506 165.206L62.489 165.322Z" fill="#6268FB"/>
<path d="M74.6833 165.322L72.8252 162.419L75.7285 163.464L75.3801 160.677L76.8899 162.999L77.006 158.818L77.8189 161.606L79.6771 156.38L79.9093 161.838L82.1159 160.56L80.8384 162.999L82.4643 161.954L82.3482 163.696L84.4386 162.651L83.045 165.206L74.6833 165.322Z" fill="#6268FB"/>
<path d="M86.7615 165.322L84.9033 162.419L87.8067 163.464L87.4583 160.677L88.968 162.999L89.0841 158.818L89.8971 161.606L91.7552 156.38L91.9875 161.838L94.194 160.56L92.9165 162.999L94.5424 161.954L94.4263 163.696L96.5167 162.651L95.1231 165.206L86.7615 165.322Z" fill="#6268FB"/>
<path d="M165.1 164.597H58.8242V169.521H165.1V164.597Z" fill="#6B6B6B" stroke="#263238" stroke-width="0.950778" stroke-linecap="round" stroke-linejoin="round"/>
<path d="M123.339 127.523H100.298V169.522H123.339V127.523Z" fill="#6268FB" stroke="#263238" stroke-width="0.950778" stroke-linecap="round" stroke-linejoin="round"/>
<path d="M121.513 151.442H101.756V129.567H121.513V151.442ZM121.513 153.764H101.756V167.18H121.513V153.764Z" fill="white" stroke="#263238" stroke-width="0.950778" stroke-linecap="round" stroke-linejoin="round"/>
<path d="M122.684 146.299H121.964V153.969H122.684V146.299Z" fill="#263238" stroke="#263238" stroke-width="0.950778" stroke-linecap="round" stroke-linejoin="round"/>
<path d="M104.808 146.996L103.665 148.009" stroke="#263238" stroke-width="0.950778" stroke-linecap="round" stroke-linejoin="round"/>
<path d="M120.7 132.921L106.448 145.542" stroke="#263238" stroke-width="0.950778" stroke-linecap="round" stroke-linejoin="round"/>
<path d="M117.453 137.668L109.305 144.892" stroke="#263238" stroke-width="0.950778" stroke-linecap="round" stroke-linejoin="round"/>
<path d="M108.474 164.978L107.596 165.759" stroke="#263238" stroke-width="0.950778" stroke-linecap="round" stroke-linejoin="round"/>
<path d="M120.7 154.145L109.737 163.859" stroke="#263238" stroke-width="0.950778" stroke-linecap="round" stroke-linejoin="round"/>
<path d="M118.201 157.801L111.935 163.357" stroke="#263238" stroke-width="0.950778" stroke-linecap="round" stroke-linejoin="round"/>
<path opacity="0.3" d="M165.1 116.95H59.0518V131.22H165.1V116.95Z" fill="black"/>
<path d="M166.684 108.709H57.3145V129.065H166.684V108.709Z" fill="white" stroke="#263238" stroke-width="0.950778" stroke-linecap="round" stroke-linejoin="round"/>
<path d="M68.1938 108.709H63.1582V129.065H68.1938V108.709Z" fill="#6268FB" stroke="#263238" stroke-width="0.950778" stroke-linecap="round" stroke-linejoin="round"/>
<path d="M78.8637 108.709H73.8281V129.065H78.8637V108.709Z" fill="#6268FB" stroke="#263238" stroke-width="0.950778" stroke-linecap="round" stroke-linejoin="round"/>
<path d="M89.5385 108.709H84.5029V129.065H89.5385V108.709Z" fill="#6268FB" stroke="#263238" stroke-width="0.950778" stroke-linecap="round" stroke-linejoin="round"/>
<path d="M99.6938 108.709H94.6582V129.065H99.6938V108.709Z" fill="#6268FB" stroke="#263238" stroke-width="0.950778" stroke-linecap="round" stroke-linejoin="round"/>
<path d="M109.848 108.709H104.812V129.065H109.848V108.709Z" fill="#6268FB" stroke="#263238" stroke-width="0.950778" stroke-linecap="round" stroke-linejoin="round"/>
<path d="M119.998 108.709H114.963V129.065H119.998V108.709Z" fill="#6268FB" stroke="#263238" stroke-width="0.950778" stroke-linecap="round" stroke-linejoin="round"/>
<path d="M130.154 108.709H125.118V129.065H130.154V108.709Z" fill="#6268FB" stroke="#263238" stroke-width="0.950778" stroke-linecap="round" stroke-linejoin="round"/>
<path d="M140.308 108.709H135.272V129.065H140.308V108.709Z" fill="#6268FB" stroke="#263238" stroke-width="0.950778" stroke-linecap="round" stroke-linejoin="round"/>
<path d="M150.462 108.709H145.427V129.065H150.462V108.709Z" fill="#6268FB" stroke="#263238" stroke-width="0.950778" stroke-linecap="round" stroke-linejoin="round"/>
<path d="M160.613 108.709H155.577V129.065H160.613V108.709Z" fill="#6268FB" stroke="#263238" stroke-width="0.950778" stroke-linecap="round" stroke-linejoin="round"/>
<path d="M178.98 120.787C178.98 120.787 176.932 117.071 171.548 114.832C166.164 112.593 154.996 109.434 155.164 106.647C155.331 103.859 164.092 107.204 164.092 107.204C164.092 107.204 149.58 100.134 147.717 95.665C145.854 91.1962 161.119 96.0366 161.119 96.0366C161.119 96.0366 154.23 83.0297 156.093 80.0381C157.956 77.0465 164.654 82.6395 164.654 82.6395C164.654 82.6395 162.234 66.6362 173.945 64.9639C185.656 63.2916 185.855 75.5692 185.855 75.5692C185.855 75.5692 189.948 68.3132 194.603 69.9948C199.257 71.6764 194.226 80.9718 194.226 80.9718C194.226 80.9718 201.115 75.7597 202.974 83.5778C204.832 91.3959 194.788 100.138 194.788 100.138C194.788 100.138 201.673 97.9041 202.044 101.811C202.416 105.718 197.576 108.314 197.576 108.314C197.576 108.314 201.673 109.058 200.182 111.101C198.691 113.145 180.281 117.995 178.98 120.787Z" fill="#6268FB"/>
<path d="M190.046 101.82C190.046 101.82 183.171 103.451 179.631 109.034L179.501 101.332C180.045 100.403 183.9 94.2808 190.046 92.4041C190.046 92.4041 182.994 94.3226 179.478 100.022L179.153 80.9766L179.055 104.152C175.594 98.7775 169.188 97.2167 169.188 97.2167C174.949 99.0423 178.405 104.589 179.051 105.699L179.018 113.313C175.543 108.008 169.188 106.447 169.188 106.447C174.842 108.24 178.275 113.61 179.009 114.86L178.786 167.937H180.644L179.826 119.747C180.467 118.674 184.058 113.081 190.046 111.246C190.046 111.246 183.371 112.83 179.789 118.214L179.659 110.54C180.342 109.401 184.063 103.646 190.046 101.82Z" fill="#263238"/>
<path d="M186.585 166.534H171.92V169.902H186.585V166.534Z" fill="white" stroke="#263238" stroke-width="0.950778" stroke-linecap="round" stroke-linejoin="round"/>
<path d="M189.994 169.484H35.834V172.309H189.994V169.484Z" fill="white" stroke="#263238" stroke-width="0.950778" stroke-linecap="round" stroke-linejoin="round"/>
<path d="M0 172.309H212.599" stroke="#263238" stroke-width="0.950778" stroke-miterlimit="10"/>
<path d="M42.1976 201.472C58.6633 201.472 72.0114 198.548 72.0114 194.941C72.0114 191.334 58.6633 188.409 42.1976 188.409C25.7319 188.409 12.3838 191.334 12.3838 194.941C12.3838 198.548 25.7319 201.472 42.1976 201.472Z" fill="#6268FB"/>
<path opacity="0.5" d="M42.1976 201.472C58.6633 201.472 72.0114 198.548 72.0114 194.941C72.0114 191.334 58.6633 188.409 42.1976 188.409C25.7319 188.409 12.3838 191.334 12.3838 194.941C12.3838 198.548 25.7319 201.472 42.1976 201.472Z" fill="white"/>
<path d="M37.0827 128.168C37.0827 128.168 33.9192 137.891 33.2132 142.811C32.5071 147.73 31.1042 161.438 31.1042 161.438C28.6183 164.538 26.9835 168.231 26.3613 172.155C25.4833 178.426 25.776 186.872 25.776 186.872C25.776 186.872 25.0745 187.926 25.0745 188.456C25.0745 188.985 25.1906 190.156 25.1906 190.156C23.9009 191.16 22.668 192.234 21.4976 193.375C20.2108 194.722 20.4431 197.068 20.4431 197.709C20.4431 198.35 21.2049 199.293 21.6184 199.293C22.0318 199.293 24.8376 198.764 26.2637 197.593C27.6898 196.423 27.727 194.021 28.08 192.948C28.4331 191.875 30.8115 188.73 30.8115 188.73C31.1683 188.692 31.5014 188.534 31.7551 188.28C32.0088 188.026 32.1677 187.693 32.2051 187.336C32.3212 186.049 32.6139 183.764 32.73 183.295C32.8462 182.826 37.7702 174.859 38.8805 170.056C39.9907 165.252 43.4515 158.052 44.6825 154.888C45.9135 151.725 48.5474 145.282 48.5474 145.282L49.077 145.105C49.077 145.105 48.0783 159.041 47.7856 163.441C47.4929 167.84 47.4326 168.945 47.4326 174.743C47.4326 180.54 49.7181 190.072 49.7181 190.072V193.059C49.7181 193.236 50.1826 193.412 51.0652 193.468C51.9478 193.524 54.5306 193.538 55.1763 193.933C55.822 194.327 58.456 194.634 61.1503 194.518C63.8446 194.402 65.2521 193.933 64.9594 193.403C64.6668 192.873 60.04 191.08 59.2782 190.593C58.5163 190.105 56.7465 188.939 56.7465 188.939C56.7465 188.939 56.8672 187.42 56.4538 186.714C56.0404 186.008 55.8685 186.073 55.8685 185.32C55.8685 184.568 57.5687 174.599 58.0379 169.856C58.5071 165.113 61.0248 158.372 61.2014 153.337C61.3779 148.301 60.9087 144.432 60.4953 138.69C60.2548 135.258 59.6474 131.861 58.6836 128.559L37.0827 128.168Z" fill="#263238" stroke="#263238" stroke-width="0.950778" stroke-linecap="round" stroke-linejoin="round"/>
<path d="M56.1198 128.526L47.9766 128.373V130.333H56.1198V128.526Z" fill="#595959" stroke="#263238" stroke-width="0.950778" stroke-linecap="round" stroke-linejoin="round"/>
<path d="M57.1143 130.333H59.1768C58.9027 129.218 58.7123 128.577 58.7123 128.577L57.1282 128.545L57.1143 130.333Z" fill="#595959" stroke="#263238" stroke-width="0.950778" stroke-linecap="round" stroke-linejoin="round"/>
<path d="M41.0039 130.333H45.9837V128.336L41.0039 128.243V130.333Z" fill="#595959" stroke="#263238" stroke-width="0.950778" stroke-linecap="round" stroke-linejoin="round"/>
<path d="M39.9494 128.22L37.0833 128.168C37.0833 128.168 36.8045 129.014 36.4004 130.333H39.9494V128.22Z" fill="#595959" stroke="#263238" stroke-width="0.950778" stroke-linecap="round" stroke-linejoin="round"/>
<path d="M54.0111 128.461H50.7314V130.278H54.0111V128.461Z" fill="white" stroke="#263238" stroke-width="0.950778" stroke-linecap="round" stroke-linejoin="round"/>
<path d="M66.4274 136.135C66.4274 136.135 67.4819 140.641 67.1893 143.396C67.0778 144.446 65.6656 147.498 65.3729 147.674C65.0874 147.766 64.7805 147.766 64.495 147.674C64.7098 147.1 64.8852 146.512 65.0199 145.914C65.0803 145.449 65.1407 144.158 65.1407 144.158C64.8021 144.908 64.4093 145.633 63.9654 146.327C63.569 146.724 63.1148 147.06 62.6183 147.321C62.5145 147.315 62.4134 147.285 62.3226 147.234C62.2318 147.184 62.1534 147.113 62.0933 147.029C61.9772 146.852 62.5579 146.443 62.8552 145.798C63.1525 145.152 63.617 143.939 63.617 143.939C63.1942 144.483 62.7281 144.991 62.2234 145.458C61.7617 145.796 61.2467 146.053 60.6997 146.22C60.5232 146.22 60.1748 145.579 60.3513 145.519C60.5278 145.458 61.9911 144.641 62.163 144.348C62.3239 144.103 62.5008 143.869 62.6926 143.647C62.005 143.925 61.3006 144.159 60.5836 144.348C60.2909 144.348 60.1748 143.884 60.1748 143.884L62.1073 142.89L62.5718 141.714C62.3333 140.813 62.3333 139.865 62.5718 138.964C62.9806 137.617 63.1571 136.679 63.1571 136.679L66.4274 136.135Z" fill="white" stroke="#263238" stroke-width="0.950778" stroke-linecap="round" stroke-linejoin="round"/>
<path d="M64.3789 138.068C64.3789 138.068 64.4347 140 64.7877 140.39C65.1407 140.781 65.7818 141.268 65.7818 141.677C65.7818 142.086 65.1407 144.432 65.3173 144.608C65.3707 144.678 65.443 144.732 65.5257 144.763C65.6085 144.793 65.6982 144.8 65.7844 144.781C65.8707 144.763 65.9499 144.72 66.0128 144.658C66.0756 144.596 66.1196 144.518 66.1395 144.432C66.5108 143.149 66.7658 141.835 66.9013 140.506" fill="white"/>
<path d="M64.3789 138.068C64.3789 138.068 64.4347 140 64.7877 140.39C65.1407 140.781 65.7818 141.268 65.7818 141.677C65.7818 142.086 65.1407 144.432 65.3173 144.608C65.3707 144.678 65.443 144.732 65.5257 144.763C65.6085 144.793 65.6982 144.8 65.7844 144.781C65.8707 144.763 65.9499 144.72 66.0128 144.658C66.0756 144.596 66.1196 144.518 66.1395 144.432C66.5108 143.149 66.7658 141.835 66.9013 140.506" stroke="#263238" stroke-width="0.950778" stroke-linecap="round" stroke-linejoin="round"/>
<path d="M61.4476 104.031C61.4476 104.031 63.0316 113.582 63.2035 116.453C63.3754 119.324 63.38 121.489 63.38 121.489L66.4274 136.135L63.1478 136.66C63.1478 136.66 59.2828 128.763 58.5024 127.834C57.722 126.905 57.3271 125.14 57.6244 122.622C57.9217 120.104 57.6802 106.335 58.2655 104.696C58.3696 104.384 58.5537 104.104 58.7993 103.886C59.045 103.667 59.3437 103.517 59.6657 103.449C59.9877 103.382 60.3216 103.401 60.6343 103.503C60.9469 103.605 61.2273 103.787 61.4476 104.031Z" fill="white" stroke="#263238" stroke-width="0.950778" stroke-linecap="round" stroke-linejoin="round"/>
<path d="M62.7393 135.722L66.0189 134.844" stroke="#263238" stroke-width="0.950778" stroke-linecap="round" stroke-linejoin="round"/>
<path d="M42.7039 94.4294C42.7039 94.4294 29.8734 99.753 29.2881 100.004C28.7028 100.255 28.294 100.004 28.0013 101.174C27.7087 102.345 22.845 123.231 23.068 124.884C23.291 126.538 26.8865 140.883 26.8865 140.883L30.9326 140.181L31.3971 122.901L33.5665 117.391C33.5665 117.391 36.4373 124.596 36.3769 125.186C36.3165 125.776 35.6151 127.119 36.0285 127.881C36.2342 128.296 36.535 128.657 36.9065 128.935H59.2041C59.2041 128.935 60.5977 128.471 60.6674 127.82C60.6226 126.876 60.5061 125.936 60.319 125.01C60.319 125.01 62.3072 117.159 62.3072 111.71C62.3072 106.261 61.6662 101.755 60.7835 100.464C59.9009 99.1723 56.7421 97.8856 53.8759 96.8915C51.0097 95.8974 48.6034 94.959 46.0253 94.7267C43.4471 94.4945 42.7039 94.4294 42.7039 94.4294Z" fill="white" stroke="#263238" stroke-width="0.950778" stroke-linecap="round" stroke-linejoin="round"/>
<path d="M52.4268 98.8193C52.4268 98.8193 54.415 107.748 54.415 112.755C54.415 117.763 54.5497 123.756 54.8191 124.708C55.0885 125.66 55.502 127.286 54.5497 128.373" stroke="#263238" stroke-width="0.950778" stroke-linecap="round" stroke-linejoin="round"/>
<path d="M33.5664 117.387L37.1387 108.719" stroke="#263238" stroke-width="0.950778" stroke-linecap="round" stroke-linejoin="round"/>
<path d="M35.3828 113.405L38.7228 109.188" stroke="#263238" stroke-width="0.950778" stroke-linecap="round" stroke-linejoin="round"/>
<path d="M26.4775 139.062L30.9324 138.593" stroke="#263238" stroke-width="0.950778" stroke-linecap="round" stroke-linejoin="round"/>
<path d="M54.8887 96.0691L56.2358 98.9353L53.1885 97.2397L54.8887 96.0691Z" fill="white" stroke="#263238" stroke-width="0.950778" stroke-linecap="round" stroke-linejoin="round"/>
<path d="M52.4268 98.8191L54.8888 96.0691L52.4871 94.8938L52.4268 98.8191Z" fill="white" stroke="#263238" stroke-width="0.950778" stroke-linecap="round" stroke-linejoin="round"/>
<path d="M52.8405 76.5634C52.8405 76.5634 54.42 78.3193 54.42 78.8442C54.4073 79.2767 54.3685 79.7079 54.3038 80.1357C54.3038 80.1357 56.9377 81.4224 56.6265 81.952C56.3153 82.4816 55.925 83.471 55.925 83.471C55.925 83.471 58.0898 88.2186 57.7832 88.6877C57.4766 89.1569 54.5036 92.0231 53.9786 93.4306C53.4537 94.8382 52.3946 98.8192 52.3946 98.8192L42.3188 93.2448C42.3188 93.2448 43.5498 91.2566 43.6102 89.9095C43.6706 88.5623 43.8425 87.5078 43.6102 86.6856C43.378 85.8634 42.1469 83.7544 42.0262 81.7058C41.9054 79.6572 44.1352 77.2555 47.0664 75.848C49.9976 74.4405 52.8405 76.5634 52.8405 76.5634Z" fill="white" stroke="#263238" stroke-width="0.950778" stroke-linecap="round" stroke-linejoin="round"/>
<path d="M51.4326 84.8181C51.775 85.2061 52.2335 85.4731 52.7399 85.5794C53.2464 85.6857 53.7736 85.6256 54.2431 85.4081" stroke="#263238" stroke-width="0.950778" stroke-linecap="round" stroke-linejoin="round"/>
<path d="M52.7384 81.0924C52.8963 81.4315 52.8406 81.7892 52.6222 81.8868C52.4039 81.9843 52.0973 81.7985 51.9394 81.4594C51.7814 81.1203 51.8418 80.7626 52.0602 80.6651C52.2785 80.5675 52.5851 80.7533 52.7384 81.0924Z" fill="#263238"/>
<path d="M50.3174 80.837C50.4843 80.4117 50.7883 80.0543 51.1812 79.8212C51.5741 79.5882 52.0335 79.4928 52.4868 79.5502" stroke="#263238" stroke-width="1.90156" stroke-linecap="round" stroke-linejoin="round"/>
<path d="M45.8678 86.2861C45.8678 86.2861 47.3915 86.2861 47.3915 85.4638C47.3915 84.6416 46.2209 83.0065 46.5135 82.1842C46.8062 81.362 48.2091 80.7906 47.6841 79.8987C47.1592 79.0068 46.1001 79.0208 46.69 78.4354C47.28 77.8501 51.6095 78.612 53.0727 77.0418C54.536 75.4717 55.1213 73.0608 54.0668 72.5962C53.0124 72.1317 51.6652 73.2977 51.6652 73.2977C51.6652 73.2977 50.9638 71.6579 48.8548 72.2432C46.7458 72.8285 43.8192 75.114 42.1794 77.3995C40.5396 79.685 39.9496 80.5026 40.5953 82.0449C41.241 83.5871 43.35 86.4394 44.1676 86.9085C44.9852 87.3777 45.8678 86.2861 45.8678 86.2861Z" fill="#263238" stroke="#263238" stroke-width="0.950778" stroke-linecap="round" stroke-linejoin="round"/>
<path d="M46.8057 87.0478C46.8057 87.0478 45.1659 84.7019 43.7584 84.9945C42.3508 85.2872 42.7039 87.3404 43.6422 88.2741C44.5806 89.2078 46.2204 88.5668 46.5688 88.3345C46.5688 88.3345 47.8602 91.4376 49.147 91.5584C50.4337 91.6792 54.0664 90.0905 54.0664 90.0905" fill="white"/>
<path d="M46.8057 87.0478C46.8057 87.0478 45.1659 84.7019 43.7584 84.9945C42.3508 85.2872 42.7039 87.3404 43.6422 88.2741C44.5806 89.2078 46.2204 88.5668 46.5688 88.3345C46.5688 88.3345 47.8602 91.4376 49.147 91.5584C50.4337 91.6792 54.0664 90.0905 54.0664 90.0905" stroke="#263238" stroke-width="0.950778" stroke-linecap="round" stroke-linejoin="round"/>
<path d="M50.6106 95.6558L52.4269 98.8192L48.915 97.0633L50.6106 95.6558Z" fill="white" stroke="#263238" stroke-width="0.950778" stroke-linecap="round" stroke-linejoin="round"/>
<path d="M42.527 91.7908L50.6099 95.6557L48.7378 100.227L41.2402 94.6012L42.527 91.7908Z" fill="white" stroke="#263238" stroke-width="0.950778" stroke-linecap="round" stroke-linejoin="round"/>
<path d="M53.658 131.035C53.658 131.035 54.4199 135.959 53.5977 138.653" stroke="#5C656A" stroke-width="0.950778" stroke-linecap="round" stroke-linejoin="round"/>
<path d="M51.0234 132.15C51.0234 132.15 51.7853 137.013 51.488 140.409" stroke="#5C656A" stroke-width="0.950778" stroke-linecap="round" stroke-linejoin="round"/>
<path d="M53.7268 139.489C53.5503 139.666 52.2032 140.311 51.8687 141.129C51.4978 141.912 51.087 142.674 50.6377 143.415" stroke="#5C656A" stroke-width="0.950778" stroke-linecap="round" stroke-linejoin="round"/>
<path d="M44.4603 130.742L42.8809 135.545" stroke="#5C656A" stroke-width="0.950778" stroke-linecap="round" stroke-linejoin="round"/>
<path d="M45.106 130.802L44.7529 138.36" stroke="#5C656A" stroke-width="0.950778" stroke-linecap="round" stroke-linejoin="round"/>
<path d="M57.8154 130.742L58.8142 135.081" stroke="#5C656A" stroke-width="0.950778" stroke-linecap="round" stroke-linejoin="round"/>
<path d="M57.5836 130.863C57.5836 130.863 57.1748 134.96 57.1748 135.137" stroke="#5C656A" stroke-width="0.950778" stroke-linecap="round" stroke-linejoin="round"/>
<path d="M32.7208 147.549H24.3173C24.1449 147.549 23.9794 147.617 23.8575 147.739C23.7355 147.861 23.667 148.027 23.667 148.199V151.627C23.667 151.8 23.7355 151.965 23.8575 152.087C23.9794 152.209 24.1449 152.278 24.3173 152.278H25.3022C25.1297 152.278 24.9643 152.209 24.8423 152.087C24.7203 151.965 24.6518 151.8 24.6518 151.627V149.388C24.6518 149.216 24.7203 149.05 24.8423 148.929C24.9643 148.807 25.1297 148.738 25.3022 148.738H31.736C31.9084 148.738 32.0739 148.807 32.1958 148.929C32.3178 149.05 32.3863 149.216 32.3863 149.388V151.627C32.3863 151.8 32.3178 151.965 32.1958 152.087C32.0739 152.209 31.9084 152.278 31.736 152.278H32.7208C32.8933 152.278 33.0587 152.209 33.1806 152.087C33.3026 151.965 33.3711 151.8 33.3711 151.627V148.199C33.3711 148.027 33.3026 147.861 33.1806 147.739C33.0587 147.617 32.8933 147.549 32.7208 147.549Z" fill="#263238" stroke="#263238" stroke-width="0.950778" stroke-linecap="round" stroke-linejoin="round"/>
<path d="M26.8863 140.883C26.8863 140.883 25.6553 145.686 25.8876 146.504C26.1198 147.321 26.7702 147.795 26.8166 147.972C26.859 148.098 26.8588 148.236 26.816 148.362C26.7732 148.489 26.6903 148.598 26.5797 148.673L26.2871 148.85C26.2871 148.85 26.0548 148.85 26.2313 149.198C26.3027 149.388 26.4329 149.551 26.603 149.663C26.9885 149.858 27.2254 149.463 27.5738 149.412C27.9222 149.361 28.1406 149.742 28.4704 149.718C28.8002 149.695 28.9767 149.365 29.2973 149.393C29.6178 149.421 29.8268 150.002 30.2914 149.797C30.4911 149.704 30.6351 149.505 30.8349 149.402C31.1322 149.249 31.5549 149.291 31.8197 149.063C32.0325 148.841 32.1635 148.552 32.1913 148.246C32.2981 147.646 30.9185 140.167 30.9185 140.167L26.8863 140.883Z" fill="white" stroke="#263238" stroke-width="0.950778" stroke-linecap="round" stroke-linejoin="round"/>
<path d="M40.4186 150.787H15.501C14.4773 150.787 13.6475 151.616 13.6475 152.64V168.471C13.6475 169.495 14.4773 170.325 15.501 170.325H40.4186C41.4422 170.325 42.2721 169.495 42.2721 168.471V152.64C42.2721 151.616 41.4422 150.787 40.4186 150.787Z" fill="#6268FB" stroke="#263238" stroke-width="0.950778" stroke-linecap="round" stroke-linejoin="round"/>
<path d="M13.7129 152.589L27.2494 162.149C27.6157 162.412 28.0552 162.553 28.506 162.553C28.9568 162.553 29.3963 162.412 29.7626 162.149L42.1981 153.1" stroke="#263238" stroke-width="0.950778" stroke-linecap="round" stroke-linejoin="round"/>
<path d="M29.641 160.863H27.3369V164.1H29.641V160.863Z" fill="white" stroke="#263238" stroke-width="0.950778" stroke-linecap="round" stroke-linejoin="round"/>
</svg>
